<?xml version="1.0" encoding="UTF-8"?>
<!DOCTYPE svg PUBLIC "-//W3C//DTD SVG 1.1//EN" "http://www.w3.org/Graphics/SVG/1.1/DTD/svg11.dtd">
<svg xmlns="http://www.w3.org/2000/svg" version="1.1" width="200px" height="91px" style="shape-rendering:geometricPrecision; text-rendering:geometricPrecision; image-rendering:optimizeQuality; fill-rule:evenodd; clip-rule:evenodd" xmlns:xlink="http://www.w3.org/1999/xlink">
<g><path style="opacity:0.851" fill="#9de5b1" d="M 100.5,3.5 C 91.6888,3.03901 83.0221,3.70568 74.5,5.5C 75.842,4.20695 77.5087,3.37362 79.5,3C 86.7042,0.861816 93.7042,1.02848 100.5,3.5 Z"/></g>
<g><path style="opacity:0.783" fill="#9ce9af" d="M 40.5,7.5 C 40.5,6.5 40.5,5.5 40.5,4.5C 26.8333,4.5 13.1667,4.5 -0.5,4.5C -0.5,4.16667 -0.5,3.83333 -0.5,3.5C 13.0917,2.35267 26.7584,2.18601 40.5,3C 42.9815,4.80381 42.9815,6.30381 40.5,7.5 Z"/></g>
<g><path style="opacity:1" fill="#3fd467" d="M -0.5,5.5 C -0.5,5.16667 -0.5,4.83333 -0.5,4.5C 13.1667,4.5 26.8333,4.5 40.5,4.5C 40.5,5.5 40.5,6.5 40.5,7.5C 28.1667,7.5 15.8333,7.5 3.5,7.5C 2.81658,5.82351 1.48324,5.15684 -0.5,5.5 Z"/></g>
<g><path style="opacity:0.8" fill="#93e5a9" d="M 100.5,3.5 C 104.297,3.87234 107.63,5.20567 110.5,7.5C 106.433,7.79367 103.1,6.46034 100.5,3.5 Z"/></g>
<g><path style="opacity:0.808" fill="#9dcede" d="M 167.5,3.5 C 163.833,3.5 160.167,3.5 156.5,3.5C 151.677,4.11624 147.01,5.11624 142.5,6.5C 147.593,3.30302 153.259,1.63635 159.5,1.5C 162.349,1.96443 165.016,2.6311 167.5,3.5 Z"/></g>
<g><path style="opacity:1" fill="#39a1c5" d="M 156.5,3.5 C 156.53,4.49722 156.03,5.16389 155,5.5C 152.865,6.12709 150.698,6.62709 148.5,7C 147.748,7.67076 147.414,8.5041 147.5,9.5C 145.833,9.5 144.167,9.5 142.5,9.5C 142.5,8.5 142.5,7.5 142.5,6.5C 147.01,5.11624 151.677,4.11624 156.5,3.5 Z"/></g>
<g><path style="opacity:1" fill="#5acd78" d="M 134.5,6.5 C 133.791,7.40397 132.791,7.73731 131.5,7.5C 130.766,6.29208 130.433,4.95875 130.5,3.5C 131.833,3.5 133.167,3.5 134.5,3.5C 134.5,4.5 134.5,5.5 134.5,6.5 Z"/></g>
<g><path style="opacity:0.106" fill="#baf4cc" d="M 134.5,6.5 C 134.5,5.5 134.5,4.5 134.5,3.5C 133.167,3.5 131.833,3.5 130.5,3.5C 130.433,4.95875 130.766,6.29208 131.5,7.5C 130.351,7.20894 129.684,6.37561 129.5,5C 131.209,0.637548 133.209,0.470881 135.5,4.5C 135.457,5.41638 135.124,6.08305 134.5,6.5 Z"/></g>
<g><path style="opacity:0.988" fill="#64b5c8" d="M 156.5,3.5 C 160.167,3.5 163.833,3.5 167.5,3.5C 166.438,5.09922 166.438,6.76589 167.5,8.5C 160.756,7.17589 154.09,7.50922 147.5,9.5C 147.414,8.5041 147.748,7.67076 148.5,7C 150.698,6.62709 152.865,6.12709 155,5.5C 156.03,5.16389 156.53,4.49722 156.5,3.5 Z"/></g>
<g><path style="opacity:0.608" fill="#9be9ae" d="M 74.5,5.5 C 73.9002,6.89992 72.9002,7.89992 71.5,8.5C 70.8333,8.5 70.1667,8.5 69.5,8.5C 70.6594,6.74973 72.326,5.74973 74.5,5.5 Z"/></g>
<g><path style="opacity:1" fill="#3fd567" d="M 100.5,3.5 C 103.1,6.46034 106.433,7.79367 110.5,7.5C 111.167,7.5 111.5,7.83333 111.5,8.5C 111.5,9.5 111.5,10.5 111.5,11.5C 110.167,11.5 108.833,11.5 107.5,11.5C 105.52,9.54863 103.187,8.04863 100.5,7C 94.6513,6.18163 88.9846,6.3483 83.5,7.5C 78.7741,7.41264 74.6075,8.74598 71,11.5C 70.5,11.3333 70,11.1667 69.5,11C 70.3805,10.2917 71.0472,9.45837 71.5,8.5C 72.9002,7.89992 73.9002,6.89992 74.5,5.5C 83.0221,3.70568 91.6888,3.03901 100.5,3.5 Z"/></g>
<g><path style="opacity:1" fill="#80df95" d="M 107.5,11.5 C 99.7939,8.10432 91.7939,7.10432 83.5,8.5C 83.5,8.16667 83.5,7.83333 83.5,7.5C 88.9846,6.3483 94.6513,6.18163 100.5,7C 103.187,8.04863 105.52,9.54863 107.5,11.5 Z"/></g>
<g><path style="opacity:1" fill="#77bbd3" d="M 142.5,6.5 C 142.5,7.5 142.5,8.5 142.5,9.5C 144.167,9.5 145.833,9.5 147.5,9.5C 144.701,11.4025 141.701,13.0692 138.5,14.5C 138.389,13.8826 138.056,13.3826 137.5,13C 138.759,12.0766 140.092,11.2432 141.5,10.5C 141,10.1667 140.5,9.83333 140,9.5C 138.594,10.4138 137.094,11.0805 135.5,11.5C 137.296,9.10001 139.63,7.43334 142.5,6.5 Z"/></g>
<g><path style="opacity:1" fill="#66bdbb" d="M 167.5,3.5 C 171.852,3.84574 175.519,5.51241 178.5,8.5C 177.5,8.5 176.5,8.5 175.5,8.5C 175.433,9.95875 175.766,11.2921 176.5,12.5C 173.529,11.1734 170.529,9.84011 167.5,8.5C 166.438,6.76589 166.438,5.09922 167.5,3.5 Z"/></g>
<g><path style="opacity:0.086" fill="#b7e4c4" d="M 191.5,9.5 C 192.833,9.5 194.167,9.5 195.5,9.5C 195.778,11.3464 195.111,12.6798 193.5,13.5C 191.889,12.6798 191.222,11.3464 191.5,9.5 Z"/></g>
<g><path style="opacity:0.745" fill="#97e4ad" d="M 69.5,8.5 C 68.0892,10.914 66.0892,12.5806 63.5,13.5C 64.9108,11.086 66.9108,9.41938 69.5,8.5 Z"/></g>
<g><path style="opacity:0.651" fill="#abe3b7" d="M 111.5,8.5 C 112.853,10.515 112.353,12.1817 110,13.5C 109.005,12.9341 108.172,12.2674 107.5,11.5C 108.833,11.5 110.167,11.5 111.5,11.5C 111.5,10.5 111.5,9.5 111.5,8.5 Z"/></g>
<g><path style="opacity:0.8" fill="#f2c1a0" d="M 154.5,10.5 C 154.5,10.8333 154.5,11.1667 154.5,11.5C 152.194,11.9926 149.861,12.3259 147.5,12.5C 149.515,11.0762 151.848,10.4095 154.5,10.5 Z"/></g>
<g><path style="opacity:0.749" fill="#aee1da" d="M 176.5,12.5 C 179.833,13.8333 182.167,16.1667 183.5,19.5C 180.833,17.5 178.5,15.1667 176.5,12.5 Z"/></g>
<g><path style="opacity:1" fill="#5dc0aa" d="M 178.5,8.5 C 183.887,11.5537 187.887,15.887 190.5,21.5C 189.279,20.9717 188.113,20.305 187,19.5C 186.833,20 186.667,20.5 186.5,21C 188.111,23.2097 188.778,25.7097 188.5,28.5C 187.029,25.4483 185.362,22.4483 183.5,19.5C 182.167,16.1667 179.833,13.8333 176.5,12.5C 175.766,11.2921 175.433,9.95875 175.5,8.5C 176.5,8.5 177.5,8.5 178.5,8.5 Z"/></g>
<g><path style="opacity:0.729" fill="#f7c5a3" d="M 147.5,12.5 C 147.167,13.1667 146.833,13.8333 146.5,14.5C 145.833,14.5 145.167,14.5 144.5,14.5C 144.973,13.0937 145.973,12.427 147.5,12.5 Z"/></g>
<g><path style="opacity:0.745" fill="#a9efb9" d="M 63.5,13.5 C 63.5,14.1667 63.5,14.8333 63.5,15.5C 62.5,16.1667 61.5,16.8333 60.5,17.5C 60.7376,15.5956 61.7376,14.2623 63.5,13.5 Z"/></g>
<g><path style="opacity:1" fill="#66db7f" d="M 83.5,7.5 C 83.5,7.83333 83.5,8.16667 83.5,8.5C 74.169,10.8377 67.169,16.171 62.5,24.5C 63.3331,22.2478 63.3331,20.0811 62.5,18C 63.624,17.7508 64.624,17.2508 65.5,16.5C 65.0431,15.7025 64.3764,15.3691 63.5,15.5C 63.5,14.8333 63.5,14.1667 63.5,13.5C 66.0892,12.5806 68.0892,10.914 69.5,8.5C 70.1667,8.5 70.8333,8.5 71.5,8.5C 71.0472,9.45837 70.3805,10.2917 69.5,11C 70,11.1667 70.5,11.3333 71,11.5C 74.6075,8.74598 78.7741,7.41264 83.5,7.5 Z"/></g>
<g><path style="opacity:1" fill="#fdd7af" d="M 157.5,16.5 C 158.397,17.5981 159.23,17.5981 160,16.5C 160.667,17.5 160.667,18.5 160,19.5C 159.23,18.4019 158.397,18.4019 157.5,19.5C 157.5,18.5 157.5,17.5 157.5,16.5 Z"/></g>
<g><path style="opacity:0.973" fill="#e9a06e" d="M 144.5,14.5 C 144.167,15.1667 143.833,15.8333 143.5,16.5C 142.078,17.925 140.411,18.925 138.5,19.5C 139.911,17.086 141.911,15.4194 144.5,14.5 Z"/></g>
<g><path style="opacity:0.365" fill="#b0f2be" d="M 60.5,17.5 C 60.573,19.0269 59.9063,20.0269 58.5,20.5C 58.427,18.9731 59.0937,17.9731 60.5,17.5 Z"/></g>
<g><path style="opacity:1" fill="#d87736" d="M 154.5,11.5 C 157.254,11.7845 159.92,12.4512 162.5,13.5C 161.332,15.2174 159.665,15.8841 157.5,15.5C 156.504,15.4142 155.671,15.7476 155,16.5C 154.506,18.1341 154.34,19.8008 154.5,21.5C 152.833,21.5 151.167,21.5 149.5,21.5C 149.5,19.5 149.5,17.5 149.5,15.5C 151.103,15.6882 152.437,15.1882 153.5,14C 151.115,13.4436 148.782,13.6103 146.5,14.5C 146.833,13.8333 147.167,13.1667 147.5,12.5C 149.861,12.3259 152.194,11.9926 154.5,11.5 Z"/></g>
<g><path style="opacity:0.351" fill="#a6edbb" d="M 3.5,7.5 C 15.8333,7.5 28.1667,7.5 40.5,7.5C 28.6783,8.49508 16.6783,8.82841 4.5,8.5C 4.5,17.1667 4.5,25.8333 4.5,34.5C 6.09903,34.2322 7.43236,34.5655 8.5,35.5C 7.16667,35.5 5.83333,35.5 4.5,35.5C 4.16667,35.5 3.83333,35.5 3.5,35.5C 3.5,26.1667 3.5,16.8333 3.5,7.5 Z"/></g>
<g><path style="opacity:1" fill="#5daccd" d="M 138.5,14.5 C 134.732,19.0353 131.732,24.0353 129.5,29.5C 126.129,30.8046 124.796,29.4713 125.5,25.5C 127.364,19.7682 130.697,15.1015 135.5,11.5C 137.094,11.0805 138.594,10.4138 140,9.5C 140.5,9.83333 141,10.1667 141.5,10.5C 140.092,11.2432 138.759,12.0766 137.5,13C 138.056,13.3826 138.389,13.8826 138.5,14.5 Z"/></g>
<g><path style="opacity:0.929" fill="#f4b284" d="M 138.5,19.5 C 137.126,21.8583 135.793,24.1917 134.5,26.5C 134.167,26.5 133.833,26.5 133.5,26.5C 134.01,23.3257 135.677,20.9923 138.5,19.5 Z"/></g>
<g><path style="opacity:1" fill="#a28a76" d="M 167.5,11.5 C 169.967,11.7549 171.967,12.7549 173.5,14.5C 174.615,16.3069 175.281,18.3069 175.5,20.5C 174.946,23.2775 173.279,24.9442 170.5,25.5C 168.973,25.427 167.973,26.0937 167.5,27.5C 164.869,29.1526 162.203,30.8193 159.5,32.5C 159.167,32.5 158.833,32.5 158.5,32.5C 158.529,29.3443 160.196,27.6777 163.5,27.5C 165.415,23.7486 167.915,20.4153 171,17.5C 171.781,16.0563 171.614,14.723 170.5,13.5C 168.863,14.4439 167.863,13.7773 167.5,11.5 Z"/></g>
<g><path style="opacity:1" fill="#ee7221" d="M 134.5,26.5 C 135.793,24.1917 137.126,21.8583 138.5,19.5C 140.411,18.925 142.078,17.925 143.5,16.5C 144.583,16.4606 145.583,16.1272 146.5,15.5C 146.833,16 147.167,16.5 147.5,17C 146.623,18.8673 145.123,20.034 143,20.5C 141.748,23.0135 141.248,25.6802 141.5,28.5C 140.5,28.5 139.5,28.5 138.5,28.5C 138.5,30.5 138.5,32.5 138.5,34.5C 137.167,34.5 135.833,34.5 134.5,34.5C 134.5,31.8333 134.5,29.1667 134.5,26.5 Z"/></g>
<g><path style="opacity:1" fill="#3ebe8c" d="M 190.5,21.5 C 191.046,26.0118 192.046,30.3451 193.5,34.5C 192.778,34.0825 192.278,33.4158 192,32.5C 191.819,35.6946 191.319,38.6946 190.5,41.5C 190.844,36.8781 190.177,32.5448 188.5,28.5C 188.778,25.7097 188.111,23.2097 186.5,21C 186.667,20.5 186.833,20 187,19.5C 188.113,20.305 189.279,20.9717 190.5,21.5 Z"/></g>
<g><path style="opacity:1" fill="#b9855e" d="M 163.5,10.5 C 165.383,12.3976 167.383,14.2309 169.5,16C 166.667,18.8333 163.833,21.6667 161,24.5C 160.517,25.448 160.351,26.448 160.5,27.5C 156.2,27.8153 154.533,30.1486 155.5,34.5C 155.5,34.8333 155.5,35.1667 155.5,35.5C 154.5,35.8333 153.833,36.5 153.5,37.5C 150.905,39.9329 148.405,42.5996 146,45.5C 145.503,47.8098 145.337,50.1432 145.5,52.5C 143.325,52.6822 141.325,53.3489 139.5,54.5C 138.151,54.1543 136.817,53.821 135.5,53.5C 135.5,53.1667 135.5,52.8333 135.5,52.5C 135.5,52.1667 135.5,51.8333 135.5,51.5C 138.683,50.4816 140.683,48.3149 141.5,45C 146.79,44.0425 149.624,40.8758 150,35.5C 153.964,33.8108 155.464,30.8108 154.5,26.5C 155.833,26.5 157.167,26.5 158.5,26.5C 158.007,24.1944 157.674,21.861 157.5,19.5C 158.397,18.4019 159.23,18.4019 160,19.5C 160.667,18.5 160.667,17.5 160,16.5C 159.23,17.5981 158.397,17.5981 157.5,16.5C 157.5,16.1667 157.5,15.8333 157.5,15.5C 159.665,15.8841 161.332,15.2174 162.5,13.5C 159.92,12.4512 157.254,11.7845 154.5,11.5C 154.5,11.1667 154.5,10.8333 154.5,10.5C 157.5,9.16667 160.5,9.16667 163.5,10.5 Z"/></g>
<g><path style="opacity:0.071" fill="#e9e6dc" d="M 170.5,25.5 C 171.625,26.6522 171.625,27.6522 170.5,28.5C 169.791,27.596 168.791,27.2627 167.5,27.5C 167.973,26.0937 168.973,25.427 170.5,25.5 Z"/></g>
<g><path style="opacity:1" fill="#80d0ac" d="M 190.5,21.5 C 192.129,23.8577 193.295,26.5243 194,29.5C 194.818,35.3487 194.652,41.0154 193.5,46.5C 193.5,42.5 193.5,38.5 193.5,34.5C 192.046,30.3451 191.046,26.0118 190.5,21.5 Z"/></g>
<g><path style="opacity:1" fill="#7696a6" d="M 179.5,19.5 C 183.722,23.1341 186.056,27.8008 186.5,33.5C 185.173,32.1999 183.84,30.8665 182.5,29.5C 181.705,31.4951 181.039,33.4951 180.5,35.5C 178.821,35.2852 177.821,35.9519 177.5,37.5C 176.883,37.3893 176.383,37.056 176,36.5C 171.377,42.7921 166.377,48.7921 161,54.5C 160.788,57.8212 159.621,60.6545 157.5,63C 158.944,65.0345 160.944,65.8678 163.5,65.5C 160.604,66.7752 157.604,66.7752 154.5,65.5C 154.201,63.396 154.534,61.396 155.5,59.5C 160.964,51.571 167.13,44.2377 174,37.5C 173.229,35.82 173.395,34.1533 174.5,32.5C 176.181,28.9783 178.181,25.6449 180.5,22.5C 179.873,21.5832 179.539,20.5832 179.5,19.5 Z"/></g>
<g><path style="opacity:0.004" fill="#fefffe" d="M 62.5,30.5 C 63.6211,32.0894 63.4544,33.7561 62,35.5C 61.3603,33.735 61.5269,32.0683 62.5,30.5 Z"/></g>
<g><path style="opacity:1" fill="#b18666" d="M 163.5,10.5 C 165.099,10.2322 166.432,10.5655 167.5,11.5C 167.863,13.7773 168.863,14.4439 170.5,13.5C 171.614,14.723 171.781,16.0563 171,17.5C 167.915,20.4153 165.415,23.7486 163.5,27.5C 160.196,27.6777 158.529,29.3443 158.5,32.5C 157.71,33.4013 156.71,34.0679 155.5,34.5C 154.533,30.1486 156.2,27.8153 160.5,27.5C 160.351,26.448 160.517,25.448 161,24.5C 163.833,21.6667 166.667,18.8333 169.5,16C 167.383,14.2309 165.383,12.3976 163.5,10.5 Z"/></g>
<g><path style="opacity:1" fill="#c97c45" d="M 157.5,15.5 C 157.5,15.8333 157.5,16.1667 157.5,16.5C 156.523,19.2869 156.19,22.2869 156.5,25.5C 155.167,25.5 153.833,25.5 152.5,25.5C 152.657,26.8734 152.49,28.2068 152,29.5C 149.319,31.5267 147.653,34.1934 147,37.5C 145.795,38.0712 144.628,38.7379 143.5,39.5C 141.909,42.595 139.743,45.2616 137,47.5C 136.329,46.7476 135.496,46.4142 134.5,46.5C 133.5,45.8333 132.5,45.1667 131.5,44.5C 131.5,43.8333 131.5,43.1667 131.5,42.5C 131.19,39.2869 131.523,36.2869 132.5,33.5C 132.5,36.5 132.5,39.5 132.5,42.5C 133.5,42.5 134.5,42.5 135.5,42.5C 135.205,40.2646 135.539,38.2646 136.5,36.5C 138.672,35.1983 141.006,34.0317 143.5,33C 143.933,30.0665 145.599,28.2332 148.5,27.5C 149.466,25.604 149.799,23.604 149.5,21.5C 151.167,21.5 152.833,21.5 154.5,21.5C 154.34,19.8008 154.506,18.1341 155,16.5C 155.671,15.7476 156.504,15.4142 157.5,15.5 Z"/></g>
<g><path style="opacity:1" fill="#7ec2d1" d="M 125.5,25.5 C 124.796,29.4713 126.129,30.8046 129.5,29.5C 128.728,33.4517 128.395,37.4517 128.5,41.5C 127.829,38.2423 126.996,34.9089 126,31.5C 124.612,36.3722 124.112,41.3722 124.5,46.5C 122.261,39.4576 122.594,32.4576 125.5,25.5 Z"/></g>
<g><path style="opacity:0.663" fill="#f9d6b4" d="M 133.5,26.5 C 133.326,28.861 132.993,31.1944 132.5,33.5C 131.523,36.2869 131.19,39.2869 131.5,42.5C 130.359,39.3601 130.192,36.0267 131,32.5C 131.24,30.1484 132.073,28.1484 133.5,26.5 Z"/></g>
<g><path style="opacity:1" fill="#868f8e" d="M 173.5,14.5 C 176.089,15.4194 178.089,17.086 179.5,19.5C 179.539,20.5832 179.873,21.5832 180.5,22.5C 178.181,25.6449 176.181,28.9783 174.5,32.5C 173.504,32.4142 172.671,32.7476 172,33.5C 172.073,37.3611 170.24,39.6944 166.5,40.5C 166.185,42.483 165.185,43.8163 163.5,44.5C 164.038,42.8828 164.371,41.2161 164.5,39.5C 164.5,39.1667 164.5,38.8333 164.5,38.5C 166,34.827 168,31.4937 170.5,28.5C 171.625,27.6522 171.625,26.6522 170.5,25.5C 173.279,24.9442 174.946,23.2775 175.5,20.5C 175.281,18.3069 174.615,16.3069 173.5,14.5 Z"/></g>
<g><path style="opacity:0.576" fill="#f9e3cc" d="M 158.5,32.5 C 158.833,32.5 159.167,32.5 159.5,32.5C 159.833,33.1667 160.167,33.8333 160.5,34.5C 158.784,34.6287 157.117,34.962 155.5,35.5C 155.5,35.1667 155.5,34.8333 155.5,34.5C 156.71,34.0679 157.71,33.4013 158.5,32.5 Z"/></g>
<g><path style="opacity:1" fill="#e1762d" d="M 149.5,21.5 C 149.799,23.604 149.466,25.604 148.5,27.5C 145.599,28.2332 143.933,30.0665 143.5,33C 141.006,34.0317 138.672,35.1983 136.5,36.5C 135.539,38.2646 135.205,40.2646 135.5,42.5C 134.5,42.5 133.5,42.5 132.5,42.5C 132.5,39.5 132.5,36.5 132.5,33.5C 132.993,31.1944 133.326,28.861 133.5,26.5C 133.833,26.5 134.167,26.5 134.5,26.5C 134.5,29.1667 134.5,31.8333 134.5,34.5C 135.833,34.5 137.167,34.5 138.5,34.5C 138.5,32.5 138.5,30.5 138.5,28.5C 139.5,28.5 140.5,28.5 141.5,28.5C 141.248,25.6802 141.748,23.0135 143,20.5C 145.123,20.034 146.623,18.8673 147.5,17C 147.167,16.5 146.833,16 146.5,15.5C 145.583,16.1272 144.583,16.4606 143.5,16.5C 143.833,15.8333 144.167,15.1667 144.5,14.5C 145.167,14.5 145.833,14.5 146.5,14.5C 148.782,13.6103 151.115,13.4436 153.5,14C 152.437,15.1882 151.103,15.6882 149.5,15.5C 149.5,17.5 149.5,19.5 149.5,21.5 Z"/></g>
<g><path style="opacity:1" fill="#be7d4f" d="M 157.5,16.5 C 157.5,17.5 157.5,18.5 157.5,19.5C 157.674,21.861 158.007,24.1944 158.5,26.5C 157.167,26.5 155.833,26.5 154.5,26.5C 155.464,30.8108 153.964,33.8108 150,35.5C 149.624,40.8758 146.79,44.0425 141.5,45C 140.683,48.3149 138.683,50.4816 135.5,51.5C 135.371,49.7839 135.038,48.1172 134.5,46.5C 135.496,46.4142 136.329,46.7476 137,47.5C 139.743,45.2616 141.909,42.595 143.5,39.5C 144.628,38.7379 145.795,38.0712 147,37.5C 147.653,34.1934 149.319,31.5267 152,29.5C 152.49,28.2068 152.657,26.8734 152.5,25.5C 153.833,25.5 155.167,25.5 156.5,25.5C 156.19,22.2869 156.523,19.2869 157.5,16.5 Z"/></g>
<g><path style="opacity:0.835" fill="#82dd96" d="M 62.5,25.5 C 60.7309,32.016 60.0643,38.6827 60.5,45.5C 60.5,46.1667 60.5,46.8333 60.5,47.5C 59.7784,47.0825 59.2784,46.4158 59,45.5C 58.0207,39.0175 58.5207,32.6841 60.5,26.5C 60.9569,25.7025 61.6236,25.3691 62.5,25.5 Z"/></g>
<g><path style="opacity:1" fill="#facd9e" d="M 136.5,36.5 C 138.356,36.4371 140.022,36.7705 141.5,37.5C 140.23,38.5622 139.063,39.5622 138,40.5C 137.209,39.255 136.709,37.9217 136.5,36.5 Z"/></g>
<g><path style="opacity:1" fill="#94bed6" d="M 180.5,35.5 C 180.128,37.5623 179.795,39.229 179.5,40.5C 177.952,40.1788 177.285,39.1788 177.5,37.5C 177.821,35.9519 178.821,35.2852 180.5,35.5 Z"/></g>
<g><path style="opacity:1" fill="#43d269" d="M 3.5,35.5 C 3.83333,35.5 4.16667,35.5 4.5,35.5C 15.3257,36.3305 26.3257,36.8305 37.5,37C 37.9574,37.414 38.2907,37.914 38.5,38.5C 26.8523,39.4989 15.1857,39.8322 3.5,39.5C 3.5,38.1667 3.5,36.8333 3.5,35.5 Z"/></g>
<g><path style="opacity:0.851" fill="#92e0a4" d="M 58.5,20.5 C 58.5402,23.4245 57.7068,26.0912 56,28.5C 55.5004,35.1583 55.3337,41.825 55.5,48.5C 52.9114,40.5997 53.078,32.5997 56,24.5C 56.6082,22.9336 57.4415,21.6002 58.5,20.5 Z"/></g>
<g><path style="opacity:0.996" fill="#fbeddd" d="M 155.5,35.5 C 155.325,37.6208 155.659,39.6208 156.5,41.5C 155.167,41.1667 153.833,40.8333 152.5,40.5C 152.557,39.391 152.89,38.391 153.5,37.5C 153.833,36.5 154.5,35.8333 155.5,35.5 Z"/></g>
<g><path style="opacity:1" fill="#aa8566" d="M 160.5,34.5 C 160.833,34.5 161.167,34.5 161.5,34.5C 162.15,36.4352 162.483,38.4352 162.5,40.5C 160.621,41.3414 158.621,41.6747 156.5,41.5C 155.659,39.6208 155.325,37.6208 155.5,35.5C 157.117,34.962 158.784,34.6287 160.5,34.5 Z"/></g>
<g><path style="opacity:0.251" fill="#e4d7c9" d="M 161.5,34.5 C 162.857,35.5903 163.857,36.9236 164.5,38.5C 164.5,38.8333 164.5,39.1667 164.5,39.5C 163.833,39.8333 163.167,40.1667 162.5,40.5C 162.483,38.4352 162.15,36.4352 161.5,34.5 Z"/></g>
<g><path style="opacity:0.463" fill="#9ee8b1" d="M 4.5,66.5 C 4.5,66.8333 4.5,67.1667 4.5,67.5C 4.16667,67.5 3.83333,67.5 3.5,67.5C 3.5,58.1667 3.5,48.8333 3.5,39.5C 15.1857,39.8322 26.8523,39.4989 38.5,38.5C 38.2907,37.914 37.9574,37.414 37.5,37C 26.3257,36.8305 15.3257,36.3305 4.5,35.5C 5.83333,35.5 7.16667,35.5 8.5,35.5C 17.8996,34.9138 27.733,34.5805 38,34.5C 40.7414,35.2215 41.7414,36.8882 41,39.5C 28.9136,40.4885 16.747,40.8218 4.5,40.5C 4.5,49.1667 4.5,57.8333 4.5,66.5 Z"/></g>
<g><path style="opacity:0.045" fill="#e8fcff" d="M 186.5,34.5 C 188.64,36.8814 188.973,39.5481 187.5,42.5C 187.167,42.5 186.833,42.5 186.5,42.5C 186.5,39.8333 186.5,37.1667 186.5,34.5 Z"/></g>
<g><path style="opacity:1" fill="#38d862" d="M -0.5,5.5 C 1.48324,5.15684 2.81658,5.82351 3.5,7.5C 3.5,16.8333 3.5,26.1667 3.5,35.5C 3.5,36.8333 3.5,38.1667 3.5,39.5C 3.5,48.8333 3.5,58.1667 3.5,67.5C 3.5,68.8333 4.16667,69.5 5.5,69.5C 3.73535,70.4614 1.73535,70.7947 -0.5,70.5C -0.5,48.8333 -0.5,27.1667 -0.5,5.5 Z"/></g>
<g><path style="opacity:0.463" fill="#a7ecc8" d="M 188.5,28.5 C 190.177,32.5448 190.844,36.8781 190.5,41.5C 190.339,44.6799 189.339,47.3465 187.5,49.5C 188.686,47.1256 188.686,44.7922 187.5,42.5C 188.765,41.4855 189.431,39.9855 189.5,38C 189.099,34.8329 188.766,31.6663 188.5,28.5 Z"/></g>
<g><path style="opacity:1" fill="#3ad765" d="M 63.5,15.5 C 64.3764,15.3691 65.0431,15.7025 65.5,16.5C 64.624,17.2508 63.624,17.7508 62.5,18C 63.3331,20.0811 63.3331,22.2478 62.5,24.5C 62.5,24.8333 62.5,25.1667 62.5,25.5C 61.6236,25.3691 60.9569,25.7025 60.5,26.5C 58.5207,32.6841 58.0207,39.0175 59,45.5C 59.2784,46.4158 59.7784,47.0825 60.5,47.5C 60.5,48.1667 60.5,48.8333 60.5,49.5C 60.719,50.675 60.3857,51.675 59.5,52.5C 58.3331,50.9208 56.9998,49.5875 55.5,48.5C 55.3337,41.825 55.5004,35.1583 56,28.5C 57.7068,26.0912 58.5402,23.4245 58.5,20.5C 59.9063,20.0269 60.573,19.0269 60.5,17.5C 61.5,16.8333 62.5,16.1667 63.5,15.5 Z"/></g>
<g><path style="opacity:0.165" fill="#eae1d7" d="M 162.5,40.5 C 162.19,42.1436 161.19,43.1436 159.5,43.5C 158.5,42.8333 157.5,42.1667 156.5,41.5C 158.621,41.6747 160.621,41.3414 162.5,40.5 Z"/></g>
<g><path style="opacity:0.004" fill="#fefffe" d="M 196.5,41.5 C 197.525,41.8966 197.692,42.5632 197,43.5C 196.536,42.9056 196.369,42.2389 196.5,41.5 Z"/></g>
<g><path style="opacity:1" fill="#5098c2" d="M 186.5,33.5 C 186.5,33.8333 186.5,34.1667 186.5,34.5C 186.5,37.1667 186.5,39.8333 186.5,42.5C 185.371,51.1107 181.037,57.4441 173.5,61.5C 171.814,59.8525 170.147,59.6859 168.5,61C 168.957,61.414 169.291,61.914 169.5,62.5C 167.604,63.4656 165.604,63.7989 163.5,63.5C 164.243,58.4838 166.743,54.4838 171,51.5C 171.256,47.2604 173.422,45.2604 177.5,45.5C 177.392,43.4862 178.058,41.8195 179.5,40.5C 179.795,39.229 180.128,37.5623 180.5,35.5C 181.039,33.4951 181.705,31.4951 182.5,29.5C 183.84,30.8665 185.173,32.1999 186.5,33.5 Z"/></g>
<g><path style="opacity:1" fill="#44abb6" d="M 128.5,41.5 C 128.5,42.1667 128.5,42.8333 128.5,43.5C 129.192,46.897 129.192,50.2303 128.5,53.5C 127.943,51.6684 126.943,50.3351 125.5,49.5C 124.596,48.791 124.263,47.791 124.5,46.5C 124.112,41.3722 124.612,36.3722 126,31.5C 126.996,34.9089 127.829,38.2423 128.5,41.5 Z"/></g>
<g><path style="opacity:0.004" fill="#fefffe" d="M 195.5,45.5 C 196.573,46.2506 196.74,47.2506 196,48.5C 195.517,47.552 195.351,46.552 195.5,45.5 Z"/></g>
<g><path style="opacity:0.918" fill="#d4ab91" d="M 131.5,44.5 C 132.5,45.1667 133.5,45.8333 134.5,46.5C 135.038,48.1172 135.371,49.7839 135.5,51.5C 135.5,51.8333 135.5,52.1667 135.5,52.5C 133.229,50.3877 131.896,47.721 131.5,44.5 Z"/></g>
<g><path style="opacity:1" fill="#3ec87e" d="M 193.5,34.5 C 193.5,38.5 193.5,42.5 193.5,46.5C 191.464,48.2057 190.464,50.539 190.5,53.5C 189.5,53.5 188.5,53.5 187.5,53.5C 187.5,52.1667 187.5,50.8333 187.5,49.5C 189.339,47.3465 190.339,44.6799 190.5,41.5C 191.319,38.6946 191.819,35.6946 192,32.5C 192.278,33.4158 192.778,34.0825 193.5,34.5 Z"/></g>
<g><path style="opacity:1" fill="#959087" d="M 164.5,39.5 C 164.371,41.2161 164.038,42.8828 163.5,44.5C 161.194,44.9926 158.861,45.3259 156.5,45.5C 156.167,47.5 155.833,49.5 155.5,51.5C 154.178,51.33 153.011,51.6634 152,52.5C 150.948,56.4047 149.448,60.0713 147.5,63.5C 145.147,62.6597 143.147,61.3264 141.5,59.5C 143.085,58.5263 144.085,57.0263 144.5,55C 145.448,54.5172 146.448,54.3505 147.5,54.5C 146.897,51.9591 146.897,49.6257 147.5,47.5C 147.783,48.2891 148.283,48.9558 149,49.5C 152.311,47.0969 155.811,45.0969 159.5,43.5C 161.19,43.1436 162.19,42.1436 162.5,40.5C 163.167,40.1667 163.833,39.8333 164.5,39.5 Z"/></g>
<g><path style="opacity:1" fill="#6cd986" d="M 55.5,48.5 C 56.9998,49.5875 58.3331,50.9208 59.5,52.5C 60.3857,51.675 60.719,50.675 60.5,49.5C 61.1429,51.0764 62.1429,52.4097 63.5,53.5C 64.3382,53.8417 64.6716,54.5084 64.5,55.5C 64.5,56.1667 64.5,56.8333 64.5,57.5C 63.735,56.3398 62.735,55.3398 61.5,54.5C 61.1667,55 60.8333,55.5 60.5,56C 61.7689,58.084 62.7689,60.2506 63.5,62.5C 59.3012,58.7761 56.6346,54.1094 55.5,48.5 Z"/></g>
<g><path style="opacity:0.404" fill="#9feeb6" d="M 60.5,45.5 C 61.871,47.936 62.871,50.6027 63.5,53.5C 62.1429,52.4097 61.1429,51.0764 60.5,49.5C 60.5,48.8333 60.5,48.1667 60.5,47.5C 60.5,46.8333 60.5,46.1667 60.5,45.5 Z"/></g>
<g><path style="opacity:1" fill="#a98e78" d="M 153.5,37.5 C 152.89,38.391 152.557,39.391 152.5,40.5C 151.189,43.1354 149.522,45.4687 147.5,47.5C 146.897,49.6257 146.897,51.9591 147.5,54.5C 146.448,54.3505 145.448,54.5172 144.5,55C 144.085,57.0263 143.085,58.5263 141.5,59.5C 138.614,58.4036 136.614,56.4036 135.5,53.5C 136.817,53.821 138.151,54.1543 139.5,54.5C 141.325,53.3489 143.325,52.6822 145.5,52.5C 145.337,50.1432 145.503,47.8098 146,45.5C 148.405,42.5996 150.905,39.9329 153.5,37.5 Z"/></g>
<g><path style="opacity:1" fill="#84d9a5" d="M 193.5,46.5 C 192.903,51.0169 191.237,55.0169 188.5,58.5C 188.5,57.1667 188.5,55.8333 188.5,54.5C 187.041,54.4326 185.708,54.7659 184.5,55.5C 185.508,53.4561 186.508,51.4561 187.5,49.5C 187.5,50.8333 187.5,52.1667 187.5,53.5C 188.5,53.5 189.5,53.5 190.5,53.5C 190.464,50.539 191.464,48.2057 193.5,46.5 Z"/></g>
<g><path style="opacity:1" fill="#74c5c0" d="M 128.5,43.5 C 130.087,49.3417 132.754,54.675 136.5,59.5C 135.185,58.5244 133.852,57.5244 132.5,56.5C 131.571,57.6888 131.238,59.0222 131.5,60.5C 128.214,57.6 126.214,53.9334 125.5,49.5C 126.943,50.3351 127.943,51.6684 128.5,53.5C 129.192,50.2303 129.192,46.897 128.5,43.5 Z"/></g>
<g><path style="opacity:0.718" fill="#a9eabf" d="M 64.5,55.5 C 66.5869,56.5846 67.9202,58.2512 68.5,60.5C 67.1667,59.5 65.8333,58.5 64.5,57.5C 64.5,56.8333 64.5,56.1667 64.5,55.5 Z"/></g>
<g><path style="opacity:1" fill="#7a8d94" d="M 174.5,32.5 C 173.395,34.1533 173.229,35.82 174,37.5C 167.13,44.2377 160.964,51.571 155.5,59.5C 154.534,61.396 154.201,63.396 154.5,65.5C 151.848,65.5905 149.515,64.9238 147.5,63.5C 149.448,60.0713 150.948,56.4047 152,52.5C 153.011,51.6634 154.178,51.33 155.5,51.5C 155.833,49.5 156.167,47.5 156.5,45.5C 158.861,45.3259 161.194,44.9926 163.5,44.5C 165.185,43.8163 166.185,42.483 166.5,40.5C 170.24,39.6944 172.073,37.3611 172,33.5C 172.671,32.7476 173.504,32.4142 174.5,32.5 Z"/></g>
<g><path style="opacity:0.004" fill="#fefffe" d="M 195.5,56.5 C 196.833,57.1667 196.833,57.1667 195.5,56.5 Z"/></g>
<g><path style="opacity:1" fill="#5e95b0" d="M 177.5,37.5 C 177.285,39.1788 177.952,40.1788 179.5,40.5C 178.058,41.8195 177.392,43.4862 177.5,45.5C 173.422,45.2604 171.256,47.2604 171,51.5C 166.743,54.4838 164.243,58.4838 163.5,63.5C 165.604,63.7989 167.604,63.4656 169.5,62.5C 169.291,61.914 168.957,61.414 168.5,61C 170.147,59.6859 171.814,59.8525 173.5,61.5C 170.808,64.1807 167.475,65.5141 163.5,65.5C 160.944,65.8678 158.944,65.0345 157.5,63C 159.621,60.6545 160.788,57.8212 161,54.5C 166.377,48.7921 171.377,42.7921 176,36.5C 176.383,37.056 176.883,37.3893 177.5,37.5 Z"/></g>
<g><path style="opacity:1" fill="#67d38f" d="M 188.5,58.5 C 184.659,64.0135 179.659,68.0135 173.5,70.5C 173.5,69.5 173.5,68.5 173.5,67.5C 171.833,67.5 170.167,67.5 168.5,67.5C 174.684,64.6513 180.017,60.6513 184.5,55.5C 185.708,54.7659 187.041,54.4326 188.5,54.5C 188.5,55.8333 188.5,57.1667 188.5,58.5 Z"/></g>
<g><path style="opacity:0.18" fill="#bce6f6" d="M 199.5,60.5 C 199.5,61.1667 199.5,61.8333 199.5,62.5C 197.465,60.2699 195.132,59.9365 192.5,61.5C 194.45,59.2472 196.784,58.9139 199.5,60.5 Z"/></g>
<g><path style="opacity:1" fill="#5dc1a8" d="M 136.5,59.5 C 140.067,62.1094 143.733,64.4428 147.5,66.5C 145.396,66.2011 143.396,66.5344 141.5,67.5C 141.863,68.1835 142.196,68.8501 142.5,69.5C 137.957,67.6283 134.29,64.6283 131.5,60.5C 131.238,59.0222 131.571,57.6888 132.5,56.5C 133.852,57.5244 135.185,58.5244 136.5,59.5 Z"/></g>
<g><path style="opacity:1" fill="#5ca7d5" d="M 199.5,62.5 C 199.5,63.8333 199.5,65.1667 199.5,66.5C 195.779,68.9903 193.112,67.9903 191.5,63.5C 191.543,62.5836 191.876,61.9169 192.5,61.5C 195.132,59.9365 197.465,60.2699 199.5,62.5 Z"/></g>
<g><path style="opacity:1" fill="#4dd471" d="M 64.5,57.5 C 65.8333,58.5 67.1667,59.5 68.5,60.5C 70.0269,60.427 71.0269,61.0937 71.5,62.5C 73.7403,64.9657 76.407,66.9657 79.5,68.5C 76.646,68.0761 73.9793,67.0761 71.5,65.5C 70.537,65.9698 70.537,66.6365 71.5,67.5C 70.8333,67.5 70.1667,67.5 69.5,67.5C 66.9108,66.5806 64.9108,64.914 63.5,62.5C 62.7689,60.2506 61.7689,58.084 60.5,56C 60.8333,55.5 61.1667,55 61.5,54.5C 62.735,55.3398 63.735,56.3398 64.5,57.5 Z"/></g>
<g><path style="opacity:0.965" fill="#92e0a8" d="M 111.5,67.5 C 110.082,65.6921 108.082,65.0254 105.5,65.5C 108.428,61.9184 110.761,62.0851 112.5,66C 112.43,66.7648 112.097,67.2648 111.5,67.5 Z"/></g>
<g><path style="opacity:0.277" fill="#c6fed9" d="M 4.5,66.5 C 16.7883,67.2943 29.1216,67.7943 41.5,68C 42.7911,69.2917 42.7911,70.4583 41.5,71.5C 41.5858,70.5041 41.2524,69.6708 40.5,69C 28.3263,68.8307 16.3263,68.3307 4.5,67.5C 4.5,67.1667 4.5,66.8333 4.5,66.5 Z"/></g>
<g><path style="opacity:1" fill="#78dd8f" d="M 105.5,65.5 C 108.082,65.0254 110.082,65.6921 111.5,67.5C 103.005,73.6253 93.6714,75.6253 83.5,73.5C 82.5,72.8333 81.5,72.1667 80.5,71.5C 86.805,72.4867 93.1383,72.6534 99.5,72C 101.725,71.1241 103.725,69.9574 105.5,68.5C 103.955,67.5481 102.288,67.2148 100.5,67.5C 101.93,66.4625 103.597,65.7959 105.5,65.5 Z"/></g>
<g><path style="opacity:0.482" fill="#97ebb1" d="M 69.5,67.5 C 70.1667,67.5 70.8333,67.5 71.5,67.5C 71.8333,68.1667 72.1667,68.8333 72.5,69.5C 70.9731,69.573 69.9731,68.9063 69.5,67.5 Z"/></g>
<g><path style="opacity:0.322" fill="#a6eeb6" d="M 71.5,62.5 C 80.5021,67.8999 90.1688,69.5666 100.5,67.5C 100.389,68.1174 100.056,68.6174 99.5,69C 92.797,69.7131 86.1303,69.5464 79.5,68.5C 76.407,66.9657 73.7403,64.9657 71.5,62.5 Z"/></g>
<g><path style="opacity:0.353" fill="#aaeac8" d="M 147.5,66.5 C 154.064,68.6892 160.73,69.0226 167.5,67.5C 164.814,68.9908 161.814,69.6575 158.5,69.5C 154.572,69.5463 150.905,68.8796 147.5,67.5C 147.5,67.1667 147.5,66.8333 147.5,66.5 Z"/></g>
<g><path style="opacity:1" fill="#3fd366" d="M 5.5,69.5 C 16.8529,69.1678 28.1862,69.5012 39.5,70.5C 26.1833,71.4992 12.85,71.8325 -0.5,71.5C -0.5,71.1667 -0.5,70.8333 -0.5,70.5C 1.73535,70.7947 3.73535,70.4614 5.5,69.5 Z"/></g>
<g><path style="opacity:1" fill="#39d664" d="M 79.5,68.5 C 86.1303,69.5464 92.797,69.7131 99.5,69C 100.056,68.6174 100.389,68.1174 100.5,67.5C 102.288,67.2148 103.955,67.5481 105.5,68.5C 103.725,69.9574 101.725,71.1241 99.5,72C 93.1383,72.6534 86.805,72.4867 80.5,71.5C 78.0075,70.2264 75.3408,69.5597 72.5,69.5C 72.1667,68.8333 71.8333,68.1667 71.5,67.5C 70.537,66.6365 70.537,65.9698 71.5,65.5C 73.9793,67.0761 76.646,68.0761 79.5,68.5 Z"/></g>
<g><path style="opacity:1" fill="#46c885" d="M 147.5,67.5 C 150.905,68.8796 154.572,69.5463 158.5,69.5C 161.814,69.6575 164.814,68.9908 167.5,67.5C 167.833,67.5 168.167,67.5 168.5,67.5C 170.167,67.5 171.833,67.5 173.5,67.5C 173.5,68.5 173.5,69.5 173.5,70.5C 171.786,71.7384 169.786,72.405 167.5,72.5C 162.156,72.666 156.823,72.4994 151.5,72C 148.705,70.9639 146.038,69.6305 143.5,68C 144.793,67.51 146.127,67.3433 147.5,67.5 Z"/></g>
<g><path style="opacity:0.794" fill="#7fd596" d="M 3.5,67.5 C 3.83333,67.5 4.16667,67.5 4.5,67.5C 16.3263,68.3307 28.3263,68.8307 40.5,69C 41.2524,69.6708 41.5858,70.5041 41.5,71.5C 41.0825,72.2216 40.4158,72.7216 39.5,73C 26.1215,73.7966 12.7882,73.6299 -0.5,72.5C -0.5,72.1667 -0.5,71.8333 -0.5,71.5C 12.85,71.8325 26.1833,71.4992 39.5,70.5C 28.1862,69.5012 16.8529,69.1678 5.5,69.5C 4.16667,69.5 3.5,68.8333 3.5,67.5 Z"/></g>
<g><path style="opacity:0.859" fill="#83de9a" d="M 72.5,69.5 C 75.3408,69.5597 78.0075,70.2264 80.5,71.5C 81.5,72.1667 82.5,72.8333 83.5,73.5C 79.3266,73.3333 75.6599,72 72.5,69.5 Z"/></g>
<g><path style="opacity:0.776" fill="#83d7ae" d="M 147.5,66.5 C 147.5,66.8333 147.5,67.1667 147.5,67.5C 146.127,67.3433 144.793,67.51 143.5,68C 146.038,69.6305 148.705,70.9639 151.5,72C 156.823,72.4994 162.156,72.666 167.5,72.5C 158.816,75.1117 150.483,74.1117 142.5,69.5C 142.196,68.8501 141.863,68.1835 141.5,67.5C 143.396,66.5344 145.396,66.2011 147.5,66.5 Z"/></g>
<g><path style="opacity:0.978" fill="#d0d0d0" d="M 142.5,80.5 C 153.505,80.3335 164.505,80.5002 175.5,81C 178.525,81.1545 180.191,82.6545 180.5,85.5C 168.923,87.466 157.256,87.966 145.5,87C 143.485,86.5757 141.651,85.7424 140,84.5C 137.564,85.7616 137.064,85.0949 138.5,82.5C 140.026,82.0057 141.359,81.339 142.5,80.5 Z"/></g>
</svg>
