<svg xmlns="http://www.w3.org/2000/svg" xmlns:xlink="http://www.w3.org/1999/xlink" viewBox="0 0 171.08 54.27"><defs><style>.cls-1,.cls-2,.cls-3,.cls-4,.cls-5,.cls-6,.cls-8{fill-rule:evenodd;}.cls-1{fill:url(#GradientFill_1);}.cls-2,.cls-7{fill:#003398;}.cls-3{fill:#6698ff;}.cls-4{fill:#1b4eb3;}.cls-5{fill:url(#GradientFill_1-2);}.cls-6{fill:url(#GradientFill_2);}.cls-8{fill:url(#GradientFill_1-3);}</style><linearGradient id="GradientFill_1" x1="33.75" y1="31.42" x2="21.1" y2="26.91" gradientUnits="userSpaceOnUse"><stop offset="0" stop-color="#ffcd03"/><stop offset="1" stop-color="#f7b718"/></linearGradient><linearGradient id="GradientFill_1-2" x1="35.16" y1="1.6" x2="34.06" y2="1.01" xlink:href="#GradientFill_1"/><linearGradient id="GradientFill_2" x1="8.42" y1="45.38" x2="38.7" y2="28.2" gradientUnits="userSpaceOnUse"><stop offset="0" stop-color="#7a99cf"/><stop offset="1" stop-color="#b0c6e7"/></linearGradient><linearGradient id="GradientFill_1-3" x1="146.53" y1="15.05" x2="143.92" y2="13.65" xlink:href="#GradientFill_1"/></defs><g id="Layer_2" data-name="Layer 2"><g id="Layer_1-2" data-name="Layer 1"><path class="cls-1" d="M8.9,51.45c8.36-6.34,18.59-14.19,22-18.24C24.1,31.48-12.65,54.85,22,14c4.35-5.13,19.9-20.92,7-4.38-35.81,46,11,5.55,11.84,18.06.31,4.54-14.2,17-25.51,26.28A22.52,22.52,0,0,1,8.9,51.45Z"/><path class="cls-2" d="M39.62,13.85c8.36,8,7.55,22.42-1.8,32.14s-23.69,11.08-32,3-7.54-22.42,1.8-32.14,23.7-11.08,32.05-3Zm-.25,2.42C31.14,9.35,17,10.52,7.8,18.9A22.17,22.17,0,0,0,.59,31.44l-.06.33v0a2.74,2.74,0,0,0-.05.28v.08c0,.1,0,.2,0,.3v.07l0,.28v.11l0,.26v.1c0,.08,0,.16,0,.23v.14h0V34A15.67,15.67,0,0,0,6,46.61C14.25,53.53,28.39,52.36,37.6,44a22.21,22.21,0,0,0,7.2-12.54c0-.11.05-.22.07-.32v0c0-.1,0-.19,0-.29v-.07c0-.11,0-.21,0-.31v-.07l0-.27v-.85h0v-.36A15.73,15.73,0,0,0,39.37,16.27Z"/><path class="cls-3" d="M39.37,16.27a15.73,15.73,0,0,1,5.68,12.58c-.1-3.45-2-6.71-5.68-9.11C31.14,14.4,17,15.3,7.8,21.76,3.76,24.6,1.34,28,.59,31.44A22.17,22.17,0,0,1,7.8,18.9C17,10.52,31.14,9.35,39.37,16.27ZM44.8,31.44c-.75,3.41-3.17,6.84-7.2,9.68-9.21,6.46-23.35,7.37-31.57,2C2.32,40.74.45,37.48.35,34A15.67,15.67,0,0,0,6,46.61C14.25,53.53,28.39,52.36,37.6,44A22.21,22.21,0,0,0,44.8,31.44Z"/><path class="cls-4" d="M39.37,15.11a17.51,17.51,0,0,1,5.68,13.54,12.31,12.31,0,0,0-5.68-9.81C31.14,13.09,17,14.07,7.8,21c-4,3.05-6.46,6.75-7.21,10.42A24.36,24.36,0,0,1,7.8,17.94C17,8.92,31.14,7.66,39.37,15.11Z"/><path class="cls-5" d="M35,0c-.12,1.23-.28,1,.86,1.46-1.22.26-1,0-1.13,1.26-.62-1.07-.33-.94-1.55-.68.83-.92.8-.61.17-1.68C34.48.86,34.17.93,35,0Z"/><path class="cls-6" d="M44.8,31.44A22.21,22.21,0,0,1,37.6,44C28.39,52.36,14.25,53.53,6,46.61A15.67,15.67,0,0,1,.35,34c.1,3.45,2,6.71,5.68,9.11,8.22,5.35,22.36,4.44,31.57-2C41.63,38.28,44.05,34.85,44.8,31.44Z"/><path class="cls-4" d="M44.8,31.44a24.38,24.38,0,0,1-7.2,13.48c-9.21,9-23.35,10.26-31.57,2.82A17.39,17.39,0,0,1,.35,34.22,12.23,12.23,0,0,0,6,44c8.22,5.74,22.36,4.77,31.57-2.17C41.63,38.79,44.05,35.11,44.8,31.44Z"/><path class="cls-7" d="M71.94,31.13A4.82,4.82,0,0,1,70,33a6.92,6.92,0,0,1-3.26.7A8.19,8.19,0,0,1,63.34,33,5.8,5.8,0,0,1,61,31.17a5.33,5.33,0,0,1-1-2.76h3.18a3.27,3.27,0,0,0,1,2.05,3.31,3.31,0,0,0,2.41.86,2.87,2.87,0,0,0,2.1-.73,2.52,2.52,0,0,0,.74-1.87,2.4,2.4,0,0,0-.55-1.63,3.75,3.75,0,0,0-1.35-1c-.54-.25-1.28-.52-2.22-.84a19.59,19.59,0,0,1-2.8-1.09,5.27,5.27,0,0,1-1.84-1.59,4.6,4.6,0,0,1-.75-2.74,4.55,4.55,0,0,1,2.81-4.33,7.54,7.54,0,0,1,3.13-.62,6.87,6.87,0,0,1,4.47,1.36,5.12,5.12,0,0,1,1.89,3.54H69A3.15,3.15,0,0,0,68,18a3.51,3.51,0,0,0-4.19-.11,2.29,2.29,0,0,0-.75,1.84,2.31,2.31,0,0,0,.52,1.55,3.54,3.54,0,0,0,1.31,1c.53.24,1.26.51,2.18.82a20.3,20.3,0,0,1,2.85,1.11,5.14,5.14,0,0,1,1.88,1.63,4.72,4.72,0,0,1,.77,2.81A5.09,5.09,0,0,1,71.94,31.13Z"/><path class="cls-7" d="M81.36,30.93v2.58H79.54a4.91,4.91,0,0,1-3.48-1.11,4.84,4.84,0,0,1-1.19-3.68v-7H72.81V19.16h2.06V15.59h3v3.57h3.46v2.52H77.87v7.09a2.43,2.43,0,0,0,.45,1.69,2.18,2.18,0,0,0,1.61.47Z"/><path class="cls-7" d="M91.83,19.94a5.15,5.15,0,0,1,2,2.55V19.16h3V33.51h-3V30.18a5.15,5.15,0,0,1-2,2.55,5.74,5.74,0,0,1-3.34,1,6.37,6.37,0,0,1-3.35-.88,6,6,0,0,1-2.3-2.56A8.63,8.63,0,0,1,82,26.32a8.6,8.6,0,0,1,.84-3.91,6,6,0,0,1,2.3-2.55A6.38,6.38,0,0,1,88.49,19,5.67,5.67,0,0,1,91.83,19.94Zm-5.59,2.9a4.9,4.9,0,0,0-1.19,3.48,4.88,4.88,0,0,0,1.19,3.48,4.13,4.13,0,0,0,3.16,1.26,4.16,4.16,0,0,0,3.81-2.24,5.75,5.75,0,0,0,0-5,4.19,4.19,0,0,0-3.81-2.25A4.13,4.13,0,0,0,86.24,22.84Z"/><path class="cls-7" d="M104,19.74a5.86,5.86,0,0,1,3.12-.82v3.23h-.88a4.9,4.9,0,0,0-3.14,1,3.81,3.81,0,0,0-1.19,3.14v7.27h-3V19.16h3V22A5.61,5.61,0,0,1,104,19.74Z"/><path class="cls-7" d="M117,19.94a5,5,0,0,1,1.92,2.55V14.23h3V33.51h-3V30.18A5,5,0,0,1,117,32.73a5.72,5.72,0,0,1-3.34,1,6.37,6.37,0,0,1-3.35-.88,6,6,0,0,1-2.3-2.56,8.63,8.63,0,0,1-.84-3.93,8.6,8.6,0,0,1,.84-3.91,6,6,0,0,1,2.3-2.55,6.38,6.38,0,0,1,3.35-.89A5.65,5.65,0,0,1,117,19.94Zm-5.59,2.9a4.9,4.9,0,0,0-1.19,3.48,4.88,4.88,0,0,0,1.19,3.48,4.13,4.13,0,0,0,3.16,1.26,4.3,4.3,0,0,0,2.24-.58,4.19,4.19,0,0,0,1.57-1.66,5.75,5.75,0,0,0,0-5,4.12,4.12,0,0,0-1.57-1.66,4.21,4.21,0,0,0-2.24-.59A4.13,4.13,0,0,0,111.39,22.84Z"/><path class="cls-7" d="M137.29,26.92h-11a4.51,4.51,0,0,0,1.23,3.28,4,4,0,0,0,2.84,1.07,4.13,4.13,0,0,0,2.51-.75,3.16,3.16,0,0,0,1.27-2h3.17A6.08,6.08,0,0,1,133.7,33a7.85,7.85,0,0,1-3.26.66,7.51,7.51,0,0,1-3.69-.88,6.26,6.26,0,0,1-2.51-2.56,8,8,0,0,1-.91-3.93,8,8,0,0,1,.91-3.91,6.29,6.29,0,0,1,2.51-2.55,7.52,7.52,0,0,1,3.69-.89,7.37,7.37,0,0,1,3.68.88,6.08,6.08,0,0,1,2.43,2.39,6.94,6.94,0,0,1,.85,3.4A6.78,6.78,0,0,1,137.29,26.92Zm-3.37-3.71a3.36,3.36,0,0,0-1.46-1.41,4.57,4.57,0,0,0-2-.46,4.19,4.19,0,0,0-2.92,1.07,4.41,4.41,0,0,0-1.28,3.16h8.16A4.51,4.51,0,0,0,133.92,23.21Z"/><path class="cls-7" d="M141.82,14.23V33.51h-3V14.23Z"/><rect class="cls-7" x="143.5" y="18.66" width="2.97" height="14.36"/><path class="cls-7" d="M156.36,30.93v2.58h-1.82a4.91,4.91,0,0,1-3.48-1.11,4.84,4.84,0,0,1-1.18-3.68v-7h-2.06V19.16h2.06V15.59h3v3.57h3.47v2.52h-3.47v7.09a2.42,2.42,0,0,0,.46,1.69,2.16,2.16,0,0,0,1.6.47Z"/><path class="cls-7" d="M171,26.92h-11a4.5,4.5,0,0,0,1.22,3.28A4,4,0,0,0,164,31.27a4.13,4.13,0,0,0,2.51-.75,3.16,3.16,0,0,0,1.27-2H171A6.12,6.12,0,0,1,167.38,33a7.85,7.85,0,0,1-3.26.66,7.51,7.51,0,0,1-3.69-.88,6.32,6.32,0,0,1-2.51-2.56,8,8,0,0,1-.91-3.93,8,8,0,0,1,.91-3.91,6.35,6.35,0,0,1,2.51-2.55,7.52,7.52,0,0,1,3.69-.89,7.41,7.41,0,0,1,3.69.88,6.05,6.05,0,0,1,2.42,2.39,6.94,6.94,0,0,1,.85,3.4A6.78,6.78,0,0,1,171,26.92Zm-3.37-3.71a3.31,3.31,0,0,0-1.46-1.41,4.57,4.57,0,0,0-2-.46,4.19,4.19,0,0,0-2.92,1.07,4.4,4.4,0,0,0-1.27,3.16h8.15A4.42,4.42,0,0,0,167.6,23.21Z"/><path class="cls-8" d="M146.12,11.25c-.29,2.93-.67,2.29,2,3.46-2.87.62-2.37.06-2.65,3-1.48-2.54-.8-2.24-3.67-1.61,2-2.19,1.88-1.45.39-4C144.9,13.29,144.17,13.46,146.12,11.25Z"/></g></g></svg>