<svg width="1559" height="489" viewBox="0 0 1559 489" fill="none" xmlns="http://www.w3.org/2000/svg">
    <path fill-rule="evenodd" clip-rule="evenodd"
        d="M80.5001 463.59C156.682 406.464 249.905 335.731 280.979 299.239C219.013 283.651 -115.879 494.226 199.876 126.147C239.517 79.9231 381.219 -62.3527 263.665 86.681C-62.6604 501.164 363.905 136.689 371.56 249.411C374.385 290.318 242.159 402.589 139.095 486.207C118.504 481.69 98.7402 474.062 80.5001 463.59Z"
        fill="white" />
    <path fill-rule="evenodd" clip-rule="evenodd"
        d="M360.442 124.796C436.624 196.88 429.243 326.811 344.039 414.393C258.835 501.976 128.159 514.23 52.4327 441.425C-23.2938 368.62 -16.277 239.409 68.8356 151.827C153.948 64.2453 284.806 51.991 360.897 124.796H360.442ZM358.164 146.601C283.166 84.2486 154.313 94.7909 70.4758 170.299C36.4151 199.64 13.2823 239.423 4.77331 283.291L4.22654 286.264C4.03059 287.097 3.87851 287.939 3.77091 288.787V289.508C3.77091 290.409 3.77091 291.31 3.77091 292.211V292.842V295.365V296.356V298.699V299.6C3.77091 300.32 3.77091 301.041 3.77091 301.672V302.933V306.357C2.85565 327.833 6.91126 349.232 15.6286 368.923C24.3459 388.613 37.4948 406.076 54.073 419.98C129.253 482.333 258.106 471.79 342.034 396.463C376.039 367.09 399.134 327.317 407.646 283.471C407.646 282.48 408.101 281.489 408.283 280.587C408.283 279.686 408.283 278.875 408.283 277.974V277.344C408.283 276.353 408.283 275.451 408.283 274.55V273.92V271.487V263.828V260.584C409.236 239.068 405.218 217.621 396.533 197.871C387.849 178.121 374.727 160.587 358.164 146.601Z"
        fill="white" />
    <path fill-rule="evenodd" clip-rule="evenodd"
        d="M358.163 146.601C374.938 160.361 388.319 177.722 397.288 197.364C406.258 217.006 410.579 238.412 409.923 259.953C409.012 228.867 391.698 199.493 358.163 177.868C283.165 129.752 154.312 137.861 70.475 196.069C33.6597 221.659 11.607 252.295 4.77245 283.291C13.2815 239.423 36.4142 199.64 70.475 170.299C154.312 94.7909 283.165 84.2487 358.163 146.601ZM407.645 283.291C400.81 314.016 378.757 344.922 342.033 370.512C258.105 428.72 129.252 436.92 54.3455 388.533C20.5374 367.088 3.49667 337.714 2.5854 306.358C1.81353 327.928 6.05326 349.386 14.9788 369.083C23.9043 388.78 37.278 406.192 54.0721 419.98C129.252 482.333 258.105 471.79 342.033 396.463C376.073 367.043 399.172 327.202 407.645 283.291Z"
        fill="white" />
    <path fill-rule="evenodd" clip-rule="evenodd"
        d="M358.164 136.149C375.209 151.567 388.665 170.462 397.602 191.526C406.538 212.591 410.743 235.323 409.924 258.151C409.091 240.394 403.954 223.096 394.946 207.713C385.938 192.33 373.323 179.313 358.164 169.758C283.166 117.948 154.313 126.778 70.476 189.221C34.0252 216.703 11.608 250.042 4.77344 283.11C12.9262 236.701 35.9617 194.116 70.476 161.649C154.313 80.3738 283.166 69.0205 358.164 136.149Z"
        fill="white" />
    <path fill-rule="evenodd" clip-rule="evenodd"
        d="M318.341 0C317.247 11.0829 315.789 9.0105 326.178 13.1553C315.06 15.4981 317.065 13.1553 315.881 24.5086C310.231 14.8673 312.873 16.0387 301.756 18.3814C309.319 10.0918 309.046 12.885 303.305 3.24378C313.602 7.74903 310.777 8.37977 318.341 0Z"
        fill="white" />
    <path fill-rule="evenodd" clip-rule="evenodd"
        d="M407.645 283.29C399.172 327.201 376.073 367.043 342.033 396.462C258.105 471.79 129.252 482.332 54.0721 419.979C37.278 406.191 23.9043 388.78 14.9788 369.083C6.05326 349.386 1.81353 327.927 2.5854 306.357C3.49667 337.443 20.8108 366.817 54.3455 388.443C129.252 436.649 258.105 428.449 342.033 370.422C378.757 344.922 400.81 314.016 407.645 283.29Z"
        fill="white" />
    <path fill-rule="evenodd" clip-rule="evenodd"
        d="M407.645 283.29C399.505 329.684 376.504 372.264 342.034 404.752C258.106 485.846 129.253 497.199 54.3463 430.161C37.2664 414.808 23.7848 395.951 14.8443 374.909C5.90374 353.867 1.72019 331.147 2.58618 308.339C3.37225 326.038 8.46238 343.289 17.4251 358.63C26.3879 373.97 38.959 386.947 54.0729 396.462C128.979 448.182 257.833 439.442 341.761 376.909C378.758 349.517 400.811 316.359 407.645 283.29Z"
        fill="white" />
    <path
        d="M654.963 280.497C650.81 287.661 644.678 293.506 637.285 297.347C628.05 301.812 617.852 303.977 607.577 303.654C596.912 303.765 586.347 301.614 576.594 297.347C568.159 293.774 560.81 288.091 555.27 280.858C549.938 273.575 546.781 264.958 546.158 255.989H575.136C575.833 263.028 579.067 269.584 584.249 274.46C587.206 277.128 590.671 279.188 594.442 280.518C598.212 281.848 602.213 282.423 606.21 282.209C609.682 282.426 613.163 281.957 616.449 280.827C619.735 279.698 622.76 277.931 625.347 275.632C627.581 273.431 629.332 270.8 630.492 267.901C631.652 265.002 632.196 261.898 632.09 258.782C632.313 253.442 630.527 248.21 627.078 244.095C623.72 240.21 619.513 237.129 614.776 235.084C609.855 232.832 603.112 230.399 594.546 227.516C585.799 224.892 577.269 221.609 569.03 217.694C562.388 214.276 556.646 209.37 552.263 203.367C547.408 196.057 545.015 187.415 545.429 178.679C545.198 170.376 547.522 162.2 552.095 155.233C556.668 148.266 563.273 142.836 571.035 139.663C580.031 135.81 589.756 133.906 599.558 134.077C614.167 133.33 628.579 137.666 640.292 146.331C645.187 150.227 649.236 155.06 652.195 160.542C655.155 166.023 656.964 172.039 657.515 178.228H628.172C627.019 172.03 623.813 166.387 619.059 162.189C613.649 157.985 607.013 155.618 600.134 155.44C593.256 155.261 586.503 157.281 580.877 161.198C578.552 163.277 576.73 165.847 575.546 168.717C574.363 171.587 573.849 174.684 574.042 177.778C573.847 182.849 575.533 187.815 578.781 191.744C581.988 195.634 586.078 198.721 590.719 200.754C595.548 202.917 602.201 205.35 610.584 208.143C619.483 210.826 628.165 214.17 636.556 218.145C643.397 221.579 649.28 226.623 653.687 232.832C658.668 240.329 661.124 249.191 660.704 258.151C660.746 265.962 658.77 273.654 654.963 280.497Z"
        fill="white" />
    <path
        d="M740.806 278.695V301.942H724.221C712.743 302.765 701.385 299.183 692.509 291.94C688.493 287.447 685.457 282.184 683.592 276.478C681.726 270.773 681.07 264.749 681.665 258.782V195.708H662.893V172.641H681.665V140.474H709.003V172.641H740.533V195.348H709.003V259.232C708.411 264.635 709.873 270.063 713.104 274.46C715.145 276.089 717.493 277.301 720.011 278.028C722.529 278.755 725.168 278.982 727.775 278.695H740.806Z"
        fill="white" />
    <path
        d="M836.216 179.669C844.633 185.189 851.025 193.247 854.441 202.646V172.641H881.779V301.942H854.441V271.937C851.025 281.335 844.633 289.393 836.216 294.914C827.261 300.965 816.624 304.113 805.779 303.924C795.058 304.12 784.492 301.375 775.252 295.995C766.138 290.494 758.851 282.476 754.293 272.928C748.902 261.775 746.278 249.512 746.638 237.156C746.354 224.981 748.977 212.911 754.293 201.925C758.866 192.411 766.151 184.425 775.252 178.948C784.512 173.635 795.076 170.954 805.779 171.199C816.571 170.808 827.215 173.77 836.216 179.669ZM785.276 205.8C777.681 214.463 773.792 225.708 774.432 237.156C773.772 248.607 777.664 259.859 785.276 268.513C788.985 272.319 793.472 275.3 798.437 277.257C803.402 279.215 808.732 280.104 814.072 279.866C821.193 280.067 828.226 278.28 834.367 274.71C840.507 271.141 845.507 265.932 848.791 259.682C852.222 252.657 854.003 244.957 854.003 237.156C854.003 229.355 852.222 221.655 848.791 214.63C845.494 208.384 840.495 203.175 834.359 199.592C828.223 196.009 821.196 194.196 814.072 194.356C808.725 194.13 803.391 195.033 798.426 197.006C793.46 198.98 788.977 201.977 785.276 205.8Z"
        fill="white" />
    <path
        d="M947.118 177.867C955.709 172.822 965.56 170.263 975.55 170.478V199.582H967.53C957.226 199.229 947.116 202.413 938.917 208.593C935.043 212.176 932.052 216.59 930.172 221.494C928.292 226.399 927.574 231.664 928.072 236.886V302.392H900.734V172.641H928.072V198.231C932.377 189.82 938.973 182.766 947.118 177.867Z"
        fill="white" />
    <path
        d="M1065.58 179.67C1073.8 185.233 1079.94 193.303 1083.08 202.646V128.22H1110.42V301.942H1083.08V271.937C1079.94 281.281 1073.8 289.351 1065.58 294.914C1056.63 300.976 1045.99 304.126 1035.15 303.925C1024.42 304.12 1013.86 301.376 1004.62 295.995C995.503 290.495 988.217 282.476 983.659 272.928C978.324 261.885 975.702 249.752 976.004 237.517C975.72 225.342 978.343 213.272 983.659 202.286C988.232 192.772 995.517 184.786 1004.62 179.309C1013.85 173.902 1024.42 171.126 1035.15 171.29C1045.93 170.86 1056.58 173.791 1065.58 179.67ZM1014.64 205.8C1007.05 214.464 1003.16 225.709 1003.8 237.157C1003.14 248.607 1007.03 259.859 1014.64 268.513C1018.35 272.319 1022.84 275.3 1027.8 277.258C1032.77 279.215 1038.1 280.105 1043.44 279.866C1050.6 280.001 1057.66 278.194 1063.85 274.64C1069.93 271.061 1074.88 265.883 1078.16 259.683C1081.59 252.658 1083.37 244.958 1083.37 237.157C1083.37 229.356 1081.59 221.655 1078.16 214.63C1074.91 208.411 1069.95 203.225 1063.85 199.673C1057.68 196.049 1050.61 194.207 1043.44 194.357C1038.06 194.104 1032.69 194.995 1027.69 196.969C1022.69 198.943 1018.18 201.955 1014.46 205.8H1014.64Z"
        fill="white" />
    <path
        d="M1250.48 242.563H1150.24C1150.02 247.979 1150.9 253.385 1152.82 258.46C1154.75 263.536 1157.68 268.179 1161.45 272.117C1168.46 278.568 1177.76 282.031 1187.33 281.759C1195.49 282.02 1203.52 279.648 1210.2 275.001C1216.28 270.705 1220.43 264.244 1221.77 256.98H1250.66C1248.97 265.871 1245.09 274.211 1239.35 281.254C1233.61 288.298 1226.19 293.827 1217.76 297.347C1208.4 301.405 1198.28 303.432 1188.06 303.294C1176.35 303.54 1164.77 300.809 1154.43 295.365C1144.7 290.045 1136.74 282.027 1131.56 272.298C1125.78 261.388 1122.93 249.197 1123.27 236.886C1122.96 224.637 1125.81 212.511 1131.56 201.655C1136.77 191.968 1144.72 183.987 1154.43 178.679C1164.76 173.206 1176.34 170.445 1188.06 170.659C1199.74 170.372 1211.3 173.105 1221.59 178.588C1230.9 183.532 1238.58 191.004 1243.74 200.124C1248.93 209.512 1251.59 220.06 1251.48 230.759C1251.53 234.717 1251.2 238.67 1250.48 242.563ZM1219.77 209.134C1216.76 203.644 1212.12 199.207 1206.46 196.429C1200.79 193.699 1194.55 192.282 1188.24 192.284C1178.45 192.004 1168.92 195.456 1161.63 201.926C1157.87 205.669 1154.91 210.114 1152.9 215.003C1150.9 219.891 1149.9 225.125 1149.97 230.399H1224.33C1224.79 223.033 1223.21 215.682 1219.77 209.134Z"
        fill="white" />
    <path d="M1291.76 128.22V301.942H1264.42V128.22H1291.76Z" fill="white" />
    <path d="M1334.13 168.136H1307.07V297.527H1334.13V168.136Z" fill="white" />
    <path
        d="M1424.26 278.695V301.942H1407.67C1396.19 302.765 1384.84 299.183 1375.96 291.94C1371.96 287.44 1368.94 282.173 1367.09 276.468C1365.24 270.763 1364.6 264.742 1365.21 258.782V195.708H1346.44V172.641H1365.21V140.474H1392.55V172.641H1424.17V195.348H1392.55V259.232C1391.97 264.647 1393.47 270.079 1396.74 274.46C1398.76 276.086 1401.09 277.298 1403.6 278.025C1406.1 278.752 1408.73 278.979 1411.32 278.695H1424.26Z"
        fill="white" />
    <path
        d="M1557.67 242.563H1457.43C1457.19 247.974 1458.05 253.376 1459.96 258.453C1461.87 263.529 1464.79 268.175 1468.55 272.117C1475.42 278.436 1484.49 281.89 1493.88 281.759C1502.04 282.02 1510.07 279.648 1516.75 275.001C1522.83 270.705 1526.98 264.243 1528.33 256.98H1557.67C1555.94 265.868 1552.03 274.2 1546.28 281.24C1540.52 288.28 1533.11 293.812 1524.68 297.347C1515.32 301.405 1505.19 303.432 1494.97 303.294C1483.26 303.539 1471.68 300.809 1461.35 295.364C1451.63 290.02 1443.69 282.008 1438.47 272.298C1432.7 261.388 1429.84 249.197 1430.18 236.886C1429.87 224.637 1432.73 212.511 1438.47 201.655C1443.71 191.987 1451.65 184.011 1461.35 178.678C1471.68 173.206 1483.26 170.445 1494.97 170.659C1506.69 170.372 1518.28 173.105 1528.6 178.588C1537.88 183.534 1545.53 191.008 1550.65 200.123C1555.84 209.512 1558.51 220.06 1558.4 230.759C1558.54 234.708 1558.3 238.661 1557.67 242.563ZM1526.96 209.134C1523.98 203.626 1519.32 199.182 1513.65 196.429C1507.98 193.699 1501.74 192.282 1495.43 192.284C1485.64 192.004 1476.11 195.456 1468.82 201.926C1465.07 205.673 1462.12 210.121 1460.13 215.01C1458.15 219.899 1457.17 225.13 1457.25 230.399H1531.51C1531.94 223.004 1530.26 215.64 1526.69 209.134H1526.96Z"
        fill="white" />
    <path fill-rule="evenodd" clip-rule="evenodd"
        d="M1330.94 101.368C1328.3 127.769 1324.84 122.002 1349.17 132.545C1323.01 138.131 1327.57 133.085 1325.02 159.576C1311.53 136.689 1317.73 139.392 1291.58 145.069C1309.8 125.336 1308.71 132.004 1295.13 109.027C1319.83 119.75 1313.17 121.281 1330.94 101.368Z"
        fill="white" />
</svg>