<svg width="1411" height="1583" viewBox="0 0 1411 1583" fill="none" xmlns="http://www.w3.org/2000/svg">
<g filter="url(#filter0_f_466_1779)">
<path d="M323.527 1514.46C198.985 1447.34 104.616 1328.37 63.8215 1187.06C52.4817 1147.77 49.7694 1126.92 50.0149 1080.68L50.3345 1023.16L62.5431 1064.38C79.5611 1121.87 99.0572 1152.74 150.193 1203.19C220.719 1272.77 313.927 1318.61 433.053 1342.3L491.571 1353.94L591.126 1275.9C715.603 1178.31 865.89 1049.36 908.615 1003.5L941.134 968.606L920.264 966.875C884.755 963.931 817.365 981.019 655.285 1034.05C444.001 1103.18 361.031 1123.2 314.69 1116.24C189.526 1097.47 261.853 929.206 551.256 565.813C581.938 527.306 606.203 495.105 605.204 494.255C600.263 490.051 492.481 521.927 437.975 543.713C239.307 623.115 104.051 751.77 60.0503 903.141C50.6413 935.523 50.5351 935.64 50.1587 914.052C49.3405 866.156 92.9205 736.035 133.845 664.223C258.829 444.866 465.279 297.562 701.403 259.255C728.501 254.861 767.618 251.255 788.334 251.243L825.983 251.227L900.145 177.752C976.153 102.444 1023.89 61.685 1029.49 67.2947C1035.02 72.8238 1005.47 121.175 954.349 190.275C927.12 227.095 905.744 257.798 906.841 258.504C907.986 259.209 927.263 264.24 949.763 269.681C1151.44 318.46 1307.36 482.928 1351.21 693.114C1364.14 755.048 1364.28 879.97 1351.55 943.936C1340.97 996.776 1309.59 1092.04 1289.48 1132.27C1203.93 1303.5 1056.83 1445.51 887.09 1520.72C860.237 1532.62 855.999 1532.81 608.912 1532.9L358.011 1533L323.527 1514.46ZM826.19 1333.83C1131.94 1256.56 1338.76 1072.87 1351.78 867.033C1357.58 775.467 1328.52 704.741 1255.63 633.099C1229.7 607.595 1194.6 578.552 1177.64 568.559C1072.4 506.538 944.99 475.045 798.849 474.937L738.013 474.888L700.045 528.078C563.46 719.513 496.988 839.785 496.988 895.455C496.988 928.081 508.161 938.597 542.835 938.596C579.914 938.595 632.69 921.349 750.621 870.672C899.267 806.805 1030.17 755.116 1069.71 744.69C1121.78 730.957 1179.72 731.296 1199.02 745.445C1235.85 772.464 1240.96 814.451 1214.07 869.222C1170.61 957.745 1007.63 1128.66 767.256 1337.79C758.878 1345.08 789.913 1343 826.19 1333.83ZM1044.06 63.5352C1041.67 59.3232 1033.58 54.7476 1026.07 53.3673C1016.02 51.5166 1017.8 50.6626 1032.89 50.1149C1049.96 49.4946 1053.34 51.1804 1053.34 60.2828C1053.34 73.0888 1050.15 74.2093 1044.06 63.5352Z" fill="#FFCC00"/>
</g>
<defs>
<filter id="filter0_f_466_1779" x="0" y="0" width="1411" height="1583" filterUnits="userSpaceOnUse" color-interpolation-filters="sRGB">
<feFlood flood-opacity="0" result="BackgroundImageFix"/>
<feBlend mode="normal" in="SourceGraphic" in2="BackgroundImageFix" result="shape"/>
<feGaussianBlur stdDeviation="25" result="effect1_foregroundBlur_466_1779"/>
</filter>
</defs>
</svg>
