<svg version="1.1" id="Layer_1" xmlns="http://www.w3.org/2000/svg" xmlns:xlink="http://www.w3.org/1999/xlink" x="0px" y="0px"
	 width="100%" viewBox="0 0 1185 377" enable-background="new 0 0 1185 377" xml:space="preserve">
<path fill="#000000" opacity="1.000000" stroke="none" 
	d="
M765.000000,378.000000 
	C510.000000,378.000000 255.500000,378.000000 1.000000,378.000000 
	C1.000000,252.333328 1.000000,126.666664 1.000000,1.000000 
	C396.000000,1.000000 791.000000,1.000000 1186.000000,1.000000 
	C1186.000000,126.666664 1186.000000,252.333328 1186.000000,378.000000 
	C1045.833374,378.000000 905.666687,378.000000 765.000000,378.000000 
M954.986084,124.117760 
	C955.230835,120.242554 955.475586,116.367355 955.792908,111.343239 
	C953.002991,114.563858 950.783508,116.755844 949.012085,119.264282 
	C946.779480,122.425880 944.284119,123.184608 940.814087,121.413605 
	C937.754578,119.852081 934.565857,118.543877 930.499146,116.699883 
	C933.106934,121.336357 935.227112,124.892708 937.097900,128.575775 
	C937.591553,129.547638 937.843445,131.320908 937.299194,132.021957 
	C935.117371,134.832306 932.579102,137.365921 930.051453,139.094971 
	C930.051453,136.177979 930.051453,133.261002 930.051453,130.384567 
	C923.240417,130.384567 917.338501,130.384567 911.325439,130.384567 
	C911.325439,169.324829 911.325439,207.879745 911.325439,246.537567 
	C917.680969,246.537567 923.701050,246.537567 930.006531,246.537567 
	C930.006531,211.438065 930.006531,176.800232 930.830566,142.016312 
	C935.183899,141.359024 939.537292,140.701736 944.182556,140.685379 
	C946.542480,144.399628 948.902405,148.113876 951.262390,151.828140 
	C950.166443,139.453247 956.235291,134.093842 968.281860,133.774017 
	C966.844727,132.667709 965.895508,132.462784 965.166199,131.946945 
	C961.777039,129.549667 956.137817,130.488754 954.986084,124.117760 
M281.333954,40.013672 
	C279.718933,40.685318 277.737396,40.967281 276.545319,42.088577 
	C263.894440,53.988438 251.369064,66.021690 237.908264,78.016769 
	C228.679382,78.711411 219.298080,78.578865 210.248459,80.246338 
	C174.363098,86.858521 144.304642,104.039917 119.455055,130.853500 
	C107.151108,144.129898 97.485748,158.913651 89.945229,175.218552 
	C78.456894,200.059814 73.784737,226.137039 77.157127,253.320786 
	C79.755913,274.268677 87.154762,293.524841 100.159492,310.408875 
	C114.000931,328.379181 131.910095,340.771851 153.286026,347.813202 
	C173.360199,354.425720 193.959946,355.529053 214.931610,352.114563 
	C245.305252,347.169312 271.716919,334.044952 294.505371,313.805664 
	C312.861755,297.502625 327.488342,278.264740 337.320251,255.462601 
	C349.801819,226.515228 354.006592,196.662064 346.848389,165.908203 
	C338.828491,131.452011 318.993439,105.537926 286.824860,90.170425 
	C277.118469,85.533516 266.304565,83.214966 256.256195,79.227318 
	C262.721985,70.746651 269.470673,62.461559 275.528656,53.698956 
	C278.360016,49.603466 279.855957,44.584732 282.635040,40.156700 
	C283.571503,41.371582 284.507965,42.586460 286.463989,45.124020 
	C284.450134,37.689064 289.256165,37.174248 294.206879,35.725586 
	C288.909058,34.123127 284.820770,32.824745 287.256104,26.801777 
	C285.576080,28.190332 283.896057,29.578888 282.205353,30.976269 
	C280.630157,30.310266 279.079376,29.654602 276.314148,28.485460 
	C279.204865,32.998798 279.524139,36.472771 275.798798,39.218700 
	C278.156982,39.557945 280.127960,39.841480 281.333954,40.013672 
M810.000000,177.500000 
	C810.000000,161.761887 810.000000,146.023773 810.000000,130.418579 
	C803.174011,130.418579 797.269348,130.418579 790.852905,130.418579 
	C790.852905,145.499130 790.852905,160.168854 790.852905,173.416077 
	C785.591492,169.500565 780.478699,164.245728 774.258118,161.508881 
	C768.945312,159.171402 762.361084,159.130661 756.338135,159.123901 
	C743.792297,159.109833 734.560059,165.448593 727.704529,175.660812 
	C721.267151,185.250290 720.772217,196.006592 720.920410,207.070023 
	C721.086243,219.445007 725.343689,229.629425 733.944214,238.677765 
	C744.247864,249.517883 767.883606,251.032150 779.129089,243.165085 
	C783.455383,240.138535 787.028931,236.036072 791.276001,232.118973 
	C791.276001,237.027740 791.276001,241.784332 791.276001,246.668930 
	C797.644531,246.668930 803.546631,246.668930 810.000000,246.668930 
	C810.000000,223.728256 810.000000,201.114120 810.000000,177.500000 
M580.999573,237.475052 
	C589.711487,245.646042 600.027283,248.740738 611.904602,248.088074 
	C623.962585,247.425491 632.827393,241.688568 640.340637,232.382294 
	C640.340637,237.130661 640.340637,241.879013 640.340637,246.627396 
	C646.734924,246.627396 652.636414,246.627396 658.684204,246.627396 
	C658.684204,217.697479 658.684204,189.141052 658.684204,160.450851 
	C652.340698,160.450851 646.319885,160.450851 640.014771,160.450851 
	C640.014771,165.517136 640.014771,170.135529 640.014771,175.773590 
	C638.688660,174.234726 637.952698,173.445343 637.292542,172.597076 
	C636.587219,171.690704 636.028992,170.662598 635.276611,169.801117 
	C625.796143,158.945435 613.319580,157.659653 600.241333,159.482224 
	C592.014221,160.628769 584.827271,164.701859 579.541260,171.168594 
	C572.162231,180.195862 569.169067,191.042343 569.104980,202.479706 
	C569.034180,215.116409 572.054810,226.995331 580.999573,237.475052 
M453.077911,191.555481 
	C454.135010,192.022247 455.173004,192.539551 456.252228,192.947830 
	C465.341125,196.386276 474.565399,199.508347 483.478607,203.352417 
	C488.035400,205.317657 491.971008,208.721390 492.958008,214.112869 
	C495.627563,228.695602 483.469818,235.179062 471.951355,232.398773 
	C463.021667,230.243378 458.306396,223.826523 456.424530,215.393494 
	C449.809540,215.393494 443.562714,215.393494 437.394653,215.393494 
	C435.922241,224.754196 444.028961,236.924286 452.103760,241.587570 
	C463.544403,248.194672 475.701599,249.208237 488.527405,247.123550 
	C501.755951,244.973434 512.362915,234.379227 513.966125,218.807495 
	C515.301636,205.836288 506.659363,192.884216 493.607208,188.005905 
	C484.350861,184.546310 474.955109,181.377396 465.954315,177.337433 
	C454.951202,172.398743 455.110718,161.261322 458.840790,155.885498 
	C465.000702,147.007721 481.089142,147.179413 487.325439,156.000046 
	C489.191650,158.639603 490.323212,161.798553 491.755493,164.648254 
	C498.088806,164.648254 504.349487,164.648254 510.547546,164.648254 
	C512.073181,154.031052 504.515839,144.483688 496.043579,139.716660 
	C482.587067,132.145203 468.171387,131.984573 453.990723,137.631226 
	C439.965942,143.215836 435.739288,155.098312 436.139801,166.284058 
	C436.546356,177.638535 442.638763,185.724365 453.077911,191.555481 
M1037.695435,240.895721 
	C1054.328857,250.923523 1071.362061,250.801178 1088.118286,241.795425 
	C1097.875732,236.551239 1102.843140,227.401642 1105.307495,216.022308 
	C1098.714355,216.022308 1093.072144,215.921158 1087.440308,216.115921 
	C1086.430786,216.150818 1085.050171,217.185654 1084.539307,218.134689 
	C1077.934326,230.406082 1069.852661,234.487228 1056.786011,231.970596 
	C1046.067505,229.906189 1037.413574,217.454681 1039.848267,207.000046 
	C1041.543091,207.000046 1043.346313,207.000061 1045.149414,207.000031 
	C1063.640381,206.999710 1082.131226,207.014954 1100.622192,206.978561 
	C1102.834595,206.974213 1105.637207,207.668167 1105.943970,204.119400 
	C1107.054688,191.275894 1102.238037,174.791275 1090.271240,166.477554 
	C1079.407715,158.930252 1067.365601,157.827240 1055.099731,159.302475 
	C1043.184570,160.735519 1033.304688,166.624512 1026.922974,177.298889 
	C1015.645630,196.161804 1017.588806,226.338028 1037.695435,240.895721 
M844.876038,245.890427 
	C857.171265,249.049332 869.358521,249.535217 881.180542,244.034149 
	C893.029358,238.520599 900.193176,229.401260 902.430603,216.203857 
	C895.515808,216.203857 889.057312,216.203857 882.683289,216.203857 
	C878.070435,227.556534 869.077148,234.292236 859.617310,232.877121 
	C846.768250,230.954971 838.199646,226.551270 836.293396,207.059082 
	C858.367004,207.059082 880.387695,207.059082 902.651062,207.059082 
	C903.308289,197.971298 903.758667,189.583679 899.866516,181.683533 
	C889.487915,160.617218 871.203064,156.897110 850.956116,159.616928 
	C843.866394,160.569321 837.392151,163.555374 831.988525,168.499435 
	C821.491577,178.103745 817.741272,190.178665 817.903564,204.156738 
	C818.128906,223.558487 825.745483,237.880753 844.876038,245.890427 
M977.950806,223.634186 
	C978.231201,234.370499 983.708740,243.166489 993.338989,245.431030 
	C1000.753052,247.174438 1008.644836,246.886597 1016.566895,247.521439 
	C1016.566895,241.363098 1016.566895,236.340668 1016.566895,230.994858 
	C1013.818176,230.994858 1011.470886,231.236557 1009.189209,230.951935 
	C1000.498718,229.867828 996.935303,228.271606 996.787659,220.651245 
	C996.643433,213.208466 996.168274,205.772003 996.029480,198.329224 
	C995.893982,191.063797 996.000000,183.793854 996.000000,175.799561 
	C1003.354309,175.799561 1010.057739,175.799561 1016.572266,175.799561 
	C1016.572266,170.145859 1016.572266,165.243210 1016.572266,159.797699 
	C1009.576843,159.797699 1003.001892,159.797699 995.886353,159.797699 
	C995.886353,152.338257 995.886353,145.430222 995.886353,138.474350 
	C989.295654,138.474350 983.279785,138.474350 976.716431,138.474350 
	C976.716431,145.852127 976.716431,152.761826 976.716431,159.768265 
	C972.576050,159.951019 968.992981,160.109161 965.340576,160.270370 
	C965.340576,165.674316 965.340576,170.575333 965.340576,176.034683 
	C969.241943,176.034683 972.821350,176.034683 977.000000,176.034683 
	C977.000000,178.370163 977.000000,180.150497 977.000000,181.930832 
	C977.000061,193.584259 976.962219,205.237946 977.037354,216.890884 
	C977.049927,218.841980 977.552856,220.789917 977.950806,223.634186 
M526.072205,139.852341 
	C526.072205,146.438599 526.072205,153.024841 526.072205,160.151703 
	C521.632812,160.151703 518.054077,160.151703 514.312622,160.151703 
	C514.312622,165.616226 514.312622,170.516571 514.312622,175.704468 
	C518.302612,175.924973 522.013184,176.130035 525.798462,176.339233 
	C525.881836,178.209900 525.965271,179.528824 525.995728,180.848969 
	C526.335205,195.611694 526.512512,210.380310 527.060181,225.135223 
	C527.369202,233.460938 531.164246,239.969254 538.762512,243.916656 
	C547.307739,248.356079 556.411560,246.834839 565.557739,246.827560 
	C565.557739,241.341782 565.557739,236.319550 565.557739,230.994690 
	C562.799988,230.994690 560.447998,231.240845 558.164124,230.950851 
	C549.586487,229.861710 545.935425,228.339188 545.785583,220.629684 
	C545.634521,212.855469 545.177002,205.087189 545.027893,197.312958 
	C544.894958,190.383728 545.000000,183.449936 545.000000,175.969574 
	C552.244568,175.969574 558.820557,175.969574 565.569824,175.969574 
	C565.569824,170.383759 565.569824,165.365875 565.569824,159.794220 
	C558.574585,159.794220 551.996582,159.794220 544.885620,159.794220 
	C544.885620,152.337540 544.885620,145.430038 544.885620,137.604935 
	C538.279663,138.079620 532.279114,138.510803 526.072205,139.852341 
M681.466553,160.000000 
	C678.064697,160.000000 674.662842,160.000000 671.419556,160.000000 
	C671.419556,189.510559 671.419556,218.068634 671.419556,246.620102 
	C677.747986,246.620102 683.650818,246.620102 690.000000,246.620102 
	C690.000000,244.447906 690.000000,242.644241 690.000000,240.840561 
	C690.000244,227.348099 689.954773,213.855438 690.015564,200.363251 
	C690.062195,190.014175 696.128601,182.207062 706.193054,180.065552 
	C710.946106,179.054214 715.886414,178.922958 720.619873,178.406250 
	C720.619873,171.490753 720.619873,164.909119 720.619873,158.220230 
	C708.070557,158.619476 697.993591,163.254410 689.776978,174.369385 
	C689.776978,168.664871 689.776978,164.579407 689.776978,160.000000 
	C687.020203,160.000000 684.727417,160.000000 681.466553,160.000000 
M958.000000,238.347656 
	C958.000000,211.413574 958.000000,184.479507 958.000000,157.474609 
	C951.305298,157.474609 945.285339,157.474609 939.428711,157.474609 
	C939.428711,186.516068 939.428711,215.081039 939.428711,243.785843 
	C945.643127,243.785843 951.427612,243.785843 957.619690,243.785843 
	C957.756104,242.176056 957.877686,240.741394 958.000000,238.347656 
z"/>
<path fill="#003398" opacity="1.000000" stroke="none" 
	d="
M255.997986,79.834442 
	C266.304565,83.214966 277.118469,85.533516 286.824860,90.170425 
	C318.993439,105.537926 338.828491,131.452011 346.848389,165.908203 
	C354.006592,196.662064 349.801819,226.515228 337.320251,255.462601 
	C327.488342,278.264740 312.861755,297.502625 294.505371,313.805664 
	C271.716919,334.044952 245.305252,347.169312 214.931610,352.114563 
	C193.959946,355.529053 173.360199,354.425720 153.286026,347.813202 
	C131.910095,340.771851 114.000931,328.379181 100.159492,310.408875 
	C87.154762,293.524841 79.755913,274.268677 77.157127,253.320786 
	C73.784737,226.137039 78.456894,200.059814 89.945229,175.218552 
	C97.485748,158.913651 107.151108,144.129898 119.455055,130.853500 
	C144.304642,104.039917 174.363098,86.858521 210.248459,80.246338 
	C219.298080,78.578865 228.679382,78.711411 238.634491,78.322540 
	C241.207458,79.062355 243.040802,79.782532 244.903809,79.869911 
	C248.593201,80.042938 252.298981,79.866447 255.997986,79.834442 
M344.126495,223.826050 
	C344.355469,223.609421 344.373444,223.364731 344.056519,222.280075 
	C345.081665,215.171463 346.106781,208.062851 347.597473,200.283524 
	C347.405243,194.832733 347.541016,189.347107 346.966064,183.936981 
	C343.870117,154.803299 330.600403,131.016617 307.733673,112.988541 
	C284.573822,94.729370 257.735382,87.869560 228.403915,88.846687 
	C205.819672,89.599030 184.601654,95.209785 164.681900,105.326180 
	C133.545792,121.138893 109.289841,144.448990 93.461296,175.692963 
	C88.659370,185.171509 86.434036,195.955383 82.997925,206.941772 
	C80.496300,217.819366 77.833633,228.681732 79.391731,240.644623 
	C79.595894,244.762375 79.402779,248.945511 80.067833,252.987427 
	C84.872147,282.185913 99.076080,305.742188 123.492188,322.585114 
	C150.081436,340.927185 179.836121,346.169067 211.491882,342.137299 
	C248.429947,337.432831 279.464050,320.748383 305.587738,294.718201 
	C317.556915,282.791870 327.674438,269.199097 334.413391,253.648483 
	C338.533905,244.140121 340.838074,233.844604 343.983612,223.982361 
	C343.983612,223.982361 343.903412,224.006653 344.126495,223.826050 
z"/>
<path fill="#003398" opacity="1.000000" stroke="none" 
	d="
M810.000000,178.000000 
	C810.000000,201.114120 810.000000,223.728256 810.000000,246.668930 
	C803.546631,246.668930 797.644531,246.668930 791.276001,246.668930 
	C791.276001,241.784332 791.276001,237.027740 791.276001,232.118973 
	C787.028931,236.036072 783.455383,240.138535 779.129089,243.165085 
	C767.883606,251.032150 744.247864,249.517883 733.944214,238.677765 
	C725.343689,229.629425 721.086243,219.445007 720.920410,207.070023 
	C720.772217,196.006592 721.267151,185.250290 727.704529,175.660812 
	C734.560059,165.448593 743.792297,159.109833 756.338135,159.123901 
	C762.361084,159.130661 768.945312,159.171402 774.258118,161.508881 
	C780.478699,164.245728 785.591492,169.500565 790.852905,173.416077 
	C790.852905,160.168854 790.852905,145.499130 790.852905,130.418579 
	C797.269348,130.418579 803.174011,130.418579 810.000000,130.418579 
	C810.000000,146.023773 810.000000,161.761887 810.000000,178.000000 
M740.359070,196.243256 
	C740.608093,201.827026 740.094666,207.578430 741.277161,212.956970 
	C743.263916,221.993805 749.217896,228.467163 758.292969,230.469727 
	C767.285339,232.454056 776.308167,231.370270 783.173645,224.234848 
	C792.147278,214.908447 792.945007,203.794189 789.072998,192.026520 
	C785.796631,182.069061 774.280212,173.730576 764.772522,175.146408 
	C751.196350,177.168106 744.248047,181.513718 740.359070,196.243256 
z"/>
<path fill="#003398" opacity="1.000000" stroke="none" 
	d="
M580.755859,237.206665 
	C572.054810,226.995331 569.034180,215.116409 569.104980,202.479706 
	C569.169067,191.042343 572.162231,180.195862 579.541260,171.168594 
	C584.827271,164.701859 592.014221,160.628769 600.241333,159.482224 
	C613.319580,157.659653 625.796143,158.945435 635.276611,169.801117 
	C636.028992,170.662598 636.587219,171.690704 637.292542,172.597076 
	C637.952698,173.445343 638.688660,174.234726 640.014771,175.773590 
	C640.014771,170.135529 640.014771,165.517136 640.014771,160.450851 
	C646.319885,160.450851 652.340698,160.450851 658.684204,160.450851 
	C658.684204,189.141052 658.684204,217.697479 658.684204,246.627396 
	C652.636414,246.627396 646.734924,246.627396 640.340637,246.627396 
	C640.340637,241.879013 640.340637,237.130661 640.340637,232.382294 
	C632.827393,241.688568 623.962585,247.425491 611.904602,248.088074 
	C600.027283,248.740738 589.711487,245.646042 580.755859,237.206665 
M589.000183,207.255188 
	C589.288330,215.533005 592.941223,222.002853 599.487000,226.970078 
	C609.690491,234.712982 627.241821,231.779953 634.446533,221.198898 
	C641.919617,210.223709 641.822449,199.057541 635.826782,187.526062 
	C628.041931,172.553497 603.570374,171.147247 593.928894,185.033096 
	C589.388550,191.572235 588.589111,198.751678 589.000183,207.255188 
z"/>
<path fill="#003398" opacity="1.000000" stroke="none" 
	d="
M452.766357,191.346771 
	C442.638763,185.724365 436.546356,177.638535 436.139801,166.284058 
	C435.739288,155.098312 439.965942,143.215836 453.990723,137.631226 
	C468.171387,131.984573 482.587067,132.145203 496.043579,139.716660 
	C504.515839,144.483688 512.073181,154.031052 510.547546,164.648254 
	C504.349487,164.648254 498.088806,164.648254 491.755493,164.648254 
	C490.323212,161.798553 489.191650,158.639603 487.325439,156.000046 
	C481.089142,147.179413 465.000702,147.007721 458.840790,155.885498 
	C455.110718,161.261322 454.951202,172.398743 465.954315,177.337433 
	C474.955109,181.377396 484.350861,184.546310 493.607208,188.005905 
	C506.659363,192.884216 515.301636,205.836288 513.966125,218.807495 
	C512.362915,234.379227 501.755951,244.973434 488.527405,247.123550 
	C475.701599,249.208237 463.544403,248.194672 452.103760,241.587570 
	C444.028961,236.924286 435.922241,224.754196 437.394653,215.393494 
	C443.562714,215.393494 449.809540,215.393494 456.424530,215.393494 
	C458.306396,223.826523 463.021667,230.243378 471.951355,232.398773 
	C483.469818,235.179062 495.627563,228.695602 492.958008,214.112869 
	C491.971008,208.721390 488.035400,205.317657 483.478607,203.352417 
	C474.565399,199.508347 465.341125,196.386276 456.252228,192.947830 
	C455.173004,192.539551 454.135010,192.022247 452.766357,191.346771 
z"/>
<path fill="#003398" opacity="1.000000" stroke="none" 
	d="
M1037.386230,240.698669 
	C1017.588806,226.338028 1015.645630,196.161804 1026.922974,177.298889 
	C1033.304688,166.624512 1043.184570,160.735519 1055.099731,159.302475 
	C1067.365601,157.827240 1079.407715,158.930252 1090.271240,166.477554 
	C1102.238037,174.791275 1107.054688,191.275894 1105.943970,204.119400 
	C1105.637207,207.668167 1102.834595,206.974213 1100.622192,206.978561 
	C1082.131226,207.014954 1063.640381,206.999710 1045.149414,207.000031 
	C1043.346313,207.000061 1041.543091,207.000046 1039.848267,207.000046 
	C1037.413574,217.454681 1046.067505,229.906189 1056.786011,231.970596 
	C1069.852661,234.487228 1077.934326,230.406082 1084.539307,218.134689 
	C1085.050171,217.185654 1086.430786,216.150818 1087.440308,216.115921 
	C1093.072144,215.921158 1098.714355,216.022308 1105.307495,216.022308 
	C1102.843140,227.401642 1097.875732,236.551239 1088.118286,241.795425 
	C1071.362061,250.801178 1054.328857,250.923523 1037.386230,240.698669 
M1044.099854,182.710022 
	C1041.319946,187.297974 1038.719360,191.937103 1039.301025,197.666901 
	C1055.430664,197.666901 1071.016357,197.666901 1087.058228,197.666901 
	C1086.393066,191.879532 1085.576538,186.775986 1081.862183,182.255875 
	C1071.971680,170.219864 1053.313110,172.271744 1044.099854,182.710022 
z"/>
<path fill="#003398" opacity="1.000000" stroke="none" 
	d="
M844.508301,245.734589 
	C825.745483,237.880753 818.128906,223.558487 817.903564,204.156738 
	C817.741272,190.178665 821.491577,178.103745 831.988525,168.499435 
	C837.392151,163.555374 843.866394,160.569321 850.956116,159.616928 
	C871.203064,156.897110 889.487915,160.617218 899.866516,181.683533 
	C903.758667,189.583679 903.308289,197.971298 902.651062,207.059082 
	C880.387695,207.059082 858.367004,207.059082 836.293396,207.059082 
	C838.199646,226.551270 846.768250,230.954971 859.617310,232.877121 
	C869.077148,234.292236 878.070435,227.556534 882.683289,216.203857 
	C889.057312,216.203857 895.515808,216.203857 902.430603,216.203857 
	C900.193176,229.401260 893.029358,238.520599 881.180542,244.034149 
	C869.358521,249.535217 857.171265,249.049332 844.508301,245.734589 
M882.979919,197.760513 
	C883.100769,195.095581 883.870117,192.263306 883.232971,189.793945 
	C880.045837,177.441727 868.002686,172.636795 857.322327,174.192307 
	C844.481689,176.062408 835.406799,186.745514 837.210999,197.937637 
	C852.148254,197.937637 867.114258,197.937637 882.979919,197.760513 
z"/>
<path fill="#003398" opacity="1.000000" stroke="none" 
	d="
M977.890015,223.186737 
	C977.552856,220.789917 977.049927,218.841980 977.037354,216.890884 
	C976.962219,205.237946 977.000061,193.584259 977.000000,181.930832 
	C977.000000,180.150497 977.000000,178.370163 977.000000,176.034683 
	C972.821350,176.034683 969.241943,176.034683 965.340576,176.034683 
	C965.340576,170.575333 965.340576,165.674316 965.340576,160.270370 
	C968.992981,160.109161 972.576050,159.951019 976.716431,159.768265 
	C976.716431,152.761826 976.716431,145.852127 976.716431,138.474350 
	C983.279785,138.474350 989.295654,138.474350 995.886353,138.474350 
	C995.886353,145.430222 995.886353,152.338257 995.886353,159.797699 
	C1003.001892,159.797699 1009.576843,159.797699 1016.572266,159.797699 
	C1016.572266,165.243210 1016.572266,170.145859 1016.572266,175.799561 
	C1010.057739,175.799561 1003.354309,175.799561 996.000000,175.799561 
	C996.000000,183.793854 995.893982,191.063797 996.029480,198.329224 
	C996.168274,205.772003 996.643433,213.208466 996.787659,220.651245 
	C996.935303,228.271606 1000.498718,229.867828 1009.189209,230.951935 
	C1011.470886,231.236557 1013.818176,230.994858 1016.566895,230.994858 
	C1016.566895,236.340668 1016.566895,241.363098 1016.566895,247.521439 
	C1008.644836,246.886597 1000.753052,247.174438 993.338989,245.431030 
	C983.708740,243.166489 978.231201,234.370499 977.890015,223.186737 
z"/>
<path fill="#003398" opacity="1.000000" stroke="none" 
	d="
M526.175354,139.397156 
	C532.279114,138.510803 538.279663,138.079620 544.885620,137.604935 
	C544.885620,145.430038 544.885620,152.337540 544.885620,159.794220 
	C551.996582,159.794220 558.574585,159.794220 565.569824,159.794220 
	C565.569824,165.365875 565.569824,170.383759 565.569824,175.969574 
	C558.820557,175.969574 552.244568,175.969574 545.000000,175.969574 
	C545.000000,183.449936 544.894958,190.383728 545.027893,197.312958 
	C545.177002,205.087189 545.634521,212.855469 545.785583,220.629684 
	C545.935425,228.339188 549.586487,229.861710 558.164124,230.950851 
	C560.447998,231.240845 562.799988,230.994690 565.557739,230.994690 
	C565.557739,236.319550 565.557739,241.341782 565.557739,246.827560 
	C556.411560,246.834839 547.307739,248.356079 538.762512,243.916656 
	C531.164246,239.969254 527.369202,233.460938 527.060181,225.135223 
	C526.512512,210.380310 526.335205,195.611694 525.995728,180.848969 
	C525.965271,179.528824 525.881836,178.209900 525.798462,176.339233 
	C522.013184,176.130035 518.302612,175.924973 514.312622,175.704468 
	C514.312622,170.516571 514.312622,165.616226 514.312622,160.151703 
	C518.054077,160.151703 521.632812,160.151703 526.072205,160.151703 
	C526.072205,153.024841 526.072205,146.438599 526.175354,139.397156 
z"/>
<path fill="#003398" opacity="1.000000" stroke="none" 
	d="
M681.950562,160.000000 
	C684.727417,160.000000 687.020203,160.000000 689.776978,160.000000 
	C689.776978,164.579407 689.776978,168.664871 689.776978,174.369385 
	C697.993591,163.254410 708.070557,158.619476 720.619873,158.220230 
	C720.619873,164.909119 720.619873,171.490753 720.619873,178.406250 
	C715.886414,178.922958 710.946106,179.054214 706.193054,180.065552 
	C696.128601,182.207062 690.062195,190.014175 690.015564,200.363251 
	C689.954773,213.855438 690.000244,227.348099 690.000000,240.840561 
	C690.000000,242.644241 690.000000,244.447906 690.000000,246.620102 
	C683.650818,246.620102 677.747986,246.620102 671.419556,246.620102 
	C671.419556,218.068634 671.419556,189.510559 671.419556,160.000000 
	C674.662842,160.000000 678.064697,160.000000 681.950562,160.000000 
z"/>
<path fill="#003398" opacity="1.000000" stroke="none" 
	d="
M930.006531,142.162399 
	C930.006531,176.800232 930.006531,211.438065 930.006531,246.537567 
	C923.701050,246.537567 917.680969,246.537567 911.325439,246.537567 
	C911.325439,207.879745 911.325439,169.324829 911.325439,130.384567 
	C917.338501,130.384567 923.240417,130.384567 930.051453,130.384567 
	C930.051453,133.261002 930.051453,136.177979 930.000488,139.818970 
	C929.968506,141.082779 929.987549,141.622589 930.006531,142.162399 
z"/>
<path fill="#003398" opacity="1.000000" stroke="none" 
	d="
M957.999634,238.827194 
	C957.877686,240.741394 957.756104,242.176056 957.619690,243.785843 
	C951.427612,243.785843 945.643127,243.785843 939.428711,243.785843 
	C939.428711,215.081039 939.428711,186.516068 939.428711,157.474609 
	C945.285339,157.474609 951.305298,157.474609 958.000000,157.474609 
	C958.000000,184.479507 958.000000,211.413574 957.999634,238.827194 
z"/>
<path fill="#F8BA15" opacity="1.000000" stroke="none" 
	d="
M256.127075,79.530884 
	C252.298981,79.866447 248.593201,80.042938 244.903809,79.869911 
	C243.040802,79.782532 241.207458,79.062355 239.084930,78.323273 
	C251.369064,66.021690 263.894440,53.988438 276.545319,42.088577 
	C277.737396,40.967281 279.718933,40.685318 281.676941,40.038300 
	C282.019928,40.062927 281.957184,39.984459 281.957153,39.984451 
	C279.855957,44.584732 278.360016,49.603466 275.528656,53.698956 
	C269.470673,62.461559 262.721985,70.746651 256.127075,79.530884 
z"/>
<path fill="#F8BB14" opacity="1.000000" stroke="none" 
	d="
M930.418579,142.089355 
	C929.987549,141.622589 929.968506,141.082779 930.061035,140.272400 
	C932.579102,137.365921 935.117371,134.832306 937.299194,132.021957 
	C937.843445,131.320908 937.591553,129.547638 937.097900,128.575775 
	C935.227112,124.892708 933.106934,121.336357 930.499146,116.699883 
	C934.565857,118.543877 937.754578,119.852081 940.814087,121.413605 
	C944.284119,123.184608 946.779480,122.425880 949.012085,119.264282 
	C950.783508,116.755844 953.002991,114.563858 955.792908,111.343239 
	C955.475586,116.367355 955.230835,120.242554 954.581055,124.640915 
	C952.993958,126.689911 951.728149,128.158981 950.647034,129.753265 
	C948.344055,133.149185 946.137024,136.610153 943.890625,140.044434 
	C939.537292,140.701736 935.183899,141.359024 930.418579,142.089355 
z"/>
<path fill="#FDC808" opacity="1.000000" stroke="none" 
	d="
M944.036621,140.364899 
	C946.137024,136.610153 948.344055,133.149185 950.647034,129.753265 
	C951.728149,128.158981 952.993958,126.689911 954.505005,125.085068 
	C956.137817,130.488754 961.777039,129.549667 965.166199,131.946945 
	C965.895508,132.462784 966.844727,132.667709 968.281860,133.774017 
	C956.235291,134.093842 950.166443,139.453247 951.262390,151.828140 
	C948.902405,148.113876 946.542480,144.399628 944.036621,140.364899 
z"/>
<path fill="#FAC010" opacity="1.000000" stroke="none" 
	d="
M282.059418,40.093971 
	C280.127960,39.841480 278.156982,39.557945 275.798798,39.218700 
	C279.524139,36.472771 279.204865,32.998798 276.314148,28.485460 
	C279.079376,29.654602 280.630157,30.310266 282.205353,30.976269 
	C283.896057,29.578888 285.576080,28.190332 287.256104,26.801777 
	C284.820770,32.824745 288.909058,34.123127 294.206879,35.725586 
	C289.256165,37.174248 284.450134,37.689064 286.463989,45.124020 
	C284.507965,42.586460 283.571503,41.371582 282.296112,40.070580 
	C281.957184,39.984459 282.019928,40.062927 282.059418,40.093971 
z"/>
<path fill="#000000" opacity="1.000000" stroke="none" 
	d="
M347.131897,200.954239 
	C346.106781,208.062851 345.081665,215.171463 344.041260,222.912186 
	C344.026001,223.544296 343.903412,224.006653 343.903412,224.006653 
	C343.903412,224.006653 343.983612,223.982361 343.670959,224.145050 
	C342.304596,227.072632 341.250916,229.837524 340.031189,232.808792 
	C339.311646,233.920441 338.758209,234.825699 338.100342,235.975220 
	C338.009277,236.396027 338.022644,236.572601 337.725037,236.903259 
	C336.909912,238.027725 336.405792,238.998108 335.936584,239.976059 
	C335.971527,239.983627 335.939606,239.919678 335.637054,240.031647 
	C335.188812,240.759506 335.043091,241.375381 334.931946,241.987122 
	C334.966553,241.983002 334.947296,241.916016 334.622650,242.036163 
	C333.715851,242.746765 332.998413,243.253159 332.571564,243.940125 
	C325.090179,255.980042 314.601593,265.088013 303.216827,273.097015 
	C295.461212,278.552948 287.022552,283.037964 278.516602,287.980865 
	C268.431580,291.725983 258.719238,295.447357 248.611420,299.099945 
	C241.865982,300.355011 235.516022,301.678833 229.180756,302.667389 
	C233.476730,298.260956 237.757996,294.189789 242.353027,289.980042 
	C248.323181,284.847534 254.167877,280.048798 259.593567,274.815643 
	C268.606476,266.122528 277.551971,257.340942 286.150299,248.241760 
	C294.609497,239.289780 303.132233,230.305557 310.637115,220.572159 
	C317.088104,212.205505 323.956665,203.642654 323.084808,191.758453 
	C322.528320,184.173004 316.774658,178.329575 309.112488,177.942795 
	C298.318848,177.397888 288.090607,179.747925 277.634949,183.205963 
	C270.511749,185.885986 263.757294,188.526398 256.643982,191.199127 
	C248.821167,194.804688 241.357269,198.377914 233.513336,201.971649 
	C224.423492,205.717056 215.713654,209.441971 206.626678,213.097961 
	C197.441956,216.246719 188.915436,220.450134 179.135727,220.035385 
	C173.467575,219.794983 169.573929,215.272552 171.169846,209.767822 
	C172.648132,204.668793 174.388840,199.561905 176.729340,194.810867 
	C188.835693,170.235779 205.103531,148.315140 221.436157,126.096954 
	C229.541794,126.018089 237.295593,125.301178 244.868835,126.165794 
	C257.116394,127.564087 269.472443,129.123978 281.372009,132.202774 
	C300.102600,137.048981 317.047607,145.942993 329.943665,160.741745 
	C335.482208,167.097443 339.339508,174.918182 343.995300,182.470993 
	C345.063904,188.897202 346.097900,194.925720 347.131897,200.954239 
z"/>
<path fill="#000000" opacity="1.000000" stroke="none" 
	d="
M79.874626,239.988647 
	C77.833633,228.681732 80.496300,217.819366 83.339462,206.384644 
	C84.797394,203.241653 85.913788,200.655792 87.292374,197.998108 
	C87.732483,197.622879 87.910408,197.319489 88.054764,197.015839 
	C88.021210,197.015610 88.042664,197.079208 88.341354,196.960297 
	C88.790436,196.228012 88.940826,195.614639 89.057014,195.007004 
	C89.022820,195.012741 89.042648,195.079208 89.341309,194.960358 
	C89.790466,194.228241 89.940964,193.615005 90.057343,193.007355 
	C90.023216,193.012970 90.043610,193.079041 90.342361,192.959625 
	C90.790504,192.226044 90.939903,191.611893 91.054718,191.004456 
	C91.020134,191.011185 91.037544,191.079468 91.348175,190.963257 
	C92.135880,189.907288 92.612953,188.967514 93.056267,188.021347 
	C93.022514,188.014969 93.050888,188.077530 93.370209,187.950439 
	C96.687851,184.155167 99.455780,180.266174 102.723701,176.856369 
	C118.198067,160.710083 136.523117,148.576309 157.279160,140.532074 
	C168.504395,136.181580 180.402283,133.566711 191.863708,130.476410 
	C188.383728,134.796371 184.817978,138.647812 181.727158,142.848694 
	C167.284866,162.477951 152.549606,181.912842 138.771942,202.002136 
	C130.293411,214.364716 122.391487,227.298096 120.511986,242.860855 
	C119.822495,248.570084 121.750587,253.506180 126.960991,256.005676 
	C134.741241,259.737976 142.900467,258.482452 150.546661,256.547943 
	C166.500717,252.511520 182.199158,247.464737 198.374420,242.781616 
	C207.498260,239.764542 216.250275,236.798889 225.378174,233.779358 
	C232.169907,231.761322 238.585754,229.797165 245.429871,227.905151 
	C250.744766,227.567154 255.631424,227.157028 260.518066,226.746887 
	C258.256409,230.375076 255.797653,232.829773 253.272720,235.214386 
	C243.845749,244.117477 234.397064,252.997589 224.605530,261.938293 
	C206.175659,276.385681 188.096756,290.781097 169.595520,305.104248 
	C167.461853,304.980865 165.750549,304.929718 163.826782,304.533142 
	C147.833191,302.085083 132.923172,297.142181 119.077698,289.417511 
	C109.062523,283.829834 99.617584,277.181091 93.070938,267.456543 
	C89.033798,261.459686 85.654945,255.019684 81.996178,248.395996 
	C81.299416,245.338455 80.587021,242.663559 79.874626,239.988647 
z"/>
<path fill="#1B4EB3" opacity="1.000000" stroke="none" 
	d="
M87.030182,198.069916 
	C85.913788,200.655792 84.797394,203.241653 83.354774,205.984451 
	C86.434036,195.955383 88.659370,185.171509 93.461296,175.692963 
	C109.289841,144.448990 133.545792,121.138893 164.681900,105.326180 
	C184.601654,95.209785 205.819672,89.599030 228.403915,88.846687 
	C257.735382,87.869560 284.573822,94.729370 307.733673,112.988541 
	C330.600403,131.016617 343.870117,154.803299 346.966064,183.936981 
	C347.541016,189.347107 347.405243,194.832733 347.364685,200.618881 
	C346.097900,194.925720 345.063904,188.897202 344.051270,182.071457 
	C343.149933,178.450806 342.524506,175.485733 341.257416,172.826355 
	C331.116211,151.541840 313.815735,137.996826 292.604797,129.186829 
	C270.154724,119.862175 246.736206,117.286118 222.407867,118.696342 
	C202.366806,119.858055 183.212997,123.816444 164.691422,131.027679 
	C137.506760,141.611816 113.941399,157.352371 96.434807,181.178864 
	C94.942108,183.210434 94.162018,185.765594 93.050888,188.077530 
	C93.050888,188.077530 93.022514,188.014969 92.696732,188.019531 
	C91.926476,189.042542 91.482010,190.061005 91.037544,191.079468 
	C91.037544,191.079468 91.020134,191.011185 90.733215,191.110626 
	C90.312065,191.833069 90.177834,192.456055 90.043610,193.079041 
	C90.043610,193.079041 90.023216,193.012970 89.731461,193.103699 
	C89.307350,193.822678 89.174995,194.450943 89.042648,195.079208 
	C89.042648,195.079208 89.022820,195.012741 88.731705,195.104523 
	C88.307945,195.823944 88.175301,196.451584 88.042664,197.079208 
	C88.042664,197.079208 88.021210,197.015610 87.771484,197.047836 
	C87.357903,197.410019 87.194046,197.739960 87.030182,198.069916 
z"/>
<path fill="#1C4EB3" opacity="1.000000" stroke="none" 
	d="
M79.633179,240.316635 
	C80.587021,242.663559 81.299416,245.338455 81.963593,248.808716 
	C84.276810,260.487152 90.016075,269.611023 97.359703,277.654449 
	C115.544083,297.571594 138.943161,307.371979 165.449905,311.787415 
	C169.289078,312.345215 172.719559,313.235260 176.140533,313.200195 
	C189.443405,313.063782 202.743286,312.633698 216.482635,312.307617 
	C227.949905,309.838776 238.978806,307.375153 250.385010,304.909546 
	C261.300049,300.347992 271.837799,295.788391 282.706482,291.139038 
	C287.771637,288.037048 292.588409,285.146057 297.224609,281.989899 
	C311.297394,272.409729 323.906769,261.302155 333.042114,246.710327 
	C333.939728,245.276596 334.324493,243.521790 334.947296,241.916016 
	C334.947296,241.916016 334.966553,241.983002 335.314087,241.960571 
	C335.754242,241.265320 335.846924,240.592499 335.939606,239.919678 
	C335.939606,239.919678 335.971527,239.983627 336.312561,240.041229 
	C337.114441,238.982285 337.575226,237.865738 338.036011,236.749176 
	C338.022644,236.572601 338.009277,236.396027 338.307678,235.869019 
	C339.145325,234.546509 339.671265,233.574463 340.197205,232.602417 
	C341.250916,229.837524 342.304596,227.072632 343.658142,224.105164 
	C340.838074,233.844604 338.533905,244.140121 334.413391,253.648483 
	C327.674438,269.199097 317.556915,282.791870 305.587738,294.718201 
	C279.464050,320.748383 248.429947,337.432831 211.491882,342.137299 
	C179.836121,346.169067 150.081436,340.927185 123.492188,322.585114 
	C99.076080,305.742188 84.872147,282.185913 80.067833,252.987427 
	C79.402779,248.945511 79.595894,244.762375 79.633179,240.316635 
z"/>
<path fill="#1C4EB3" opacity="1.000000" stroke="none" 
	d="
M344.014954,223.916351 
	C343.903412,224.006653 344.026001,223.544296 344.103210,223.318146 
	C344.373444,223.364731 344.355469,223.609421 344.014954,223.916351 
z"/>
<path fill="#000000" opacity="1.000000" stroke="none" 
	d="
M740.576172,195.870865 
	C744.248047,181.513718 751.196350,177.168106 764.772522,175.146408 
	C774.280212,173.730576 785.796631,182.069061 789.072998,192.026520 
	C792.945007,203.794189 792.147278,214.908447 783.173645,224.234848 
	C776.308167,231.370270 767.285339,232.454056 758.292969,230.469727 
	C749.217896,228.467163 743.263916,221.993805 741.277161,212.956970 
	C740.094666,207.578430 740.608093,201.827026 740.576172,195.870865 
z"/>
<path fill="#000000" opacity="1.000000" stroke="none" 
	d="
M589.000122,206.788239 
	C588.589111,198.751678 589.388550,191.572235 593.928894,185.033096 
	C603.570374,171.147247 628.041931,172.553497 635.826782,187.526062 
	C641.822449,199.057541 641.919617,210.223709 634.446533,221.198898 
	C627.241821,231.779953 609.690491,234.712982 599.487000,226.970078 
	C592.941223,222.002853 589.288330,215.533005 589.000122,206.788239 
z"/>
<path fill="#000000" opacity="1.000000" stroke="none" 
	d="
M1044.295166,182.398270 
	C1053.313110,172.271744 1071.971680,170.219864 1081.862183,182.255875 
	C1085.576538,186.775986 1086.393066,191.879532 1087.058228,197.666901 
	C1071.016357,197.666901 1055.430664,197.666901 1039.301025,197.666901 
	C1038.719360,191.937103 1041.319946,187.297974 1044.295166,182.398270 
z"/>
<path fill="#000000" opacity="1.000000" stroke="none" 
	d="
M882.530029,197.849075 
	C867.114258,197.937637 852.148254,197.937637 837.210999,197.937637 
	C835.406799,186.745514 844.481689,176.062408 857.322327,174.192307 
	C868.002686,172.636795 880.045837,177.441727 883.232971,189.793945 
	C883.870117,192.263306 883.100769,195.095581 882.530029,197.849075 
z"/>
<path fill="#F7B718" opacity="1.000000" stroke="none" 
	d="
M198.002625,242.833038 
	C182.199158,247.464737 166.500717,252.511520 150.546661,256.547943 
	C142.900467,258.482452 134.741241,259.737976 126.960991,256.005676 
	C121.750587,253.506180 119.822495,248.570084 120.511986,242.860855 
	C122.391487,227.298096 130.293411,214.364716 138.771942,202.002136 
	C152.549606,181.912842 167.284866,162.477951 181.727158,142.848694 
	C184.817978,138.647812 188.383728,134.796371 192.213898,130.298737 
	C202.132492,128.598648 211.567886,127.383766 221.003281,126.168884 
	C205.103531,148.315140 188.835693,170.235779 176.729340,194.810867 
	C174.388840,199.561905 172.648132,204.668793 171.169846,209.767822 
	C169.573929,215.272552 173.467575,219.794983 179.135727,220.035385 
	C188.915436,220.450134 197.441956,216.246719 206.602509,213.471924 
	C206.224533,216.117004 205.449646,218.305786 204.770691,220.523911 
	C202.496201,227.954636 200.255966,235.395844 198.002625,242.833038 
z"/>
<path fill="#FFCC04" opacity="1.000000" stroke="none" 
	d="
M278.003693,183.166336 
	C288.090607,179.747925 298.318848,177.397888 309.112488,177.942795 
	C316.774658,178.329575 322.528320,184.173004 323.084808,191.758453 
	C323.956665,203.642654 317.088104,212.205505 310.637115,220.572159 
	C303.132233,230.305557 294.609497,239.289780 286.150299,248.241760 
	C277.551971,257.340942 268.606476,266.122528 259.593567,274.815643 
	C254.167877,280.048798 248.323181,284.847534 242.348938,289.576477 
	C242.936478,286.306671 243.717697,283.257812 244.766876,280.304138 
	C253.063889,256.945984 261.524628,233.645264 269.686859,210.240341 
	C272.793488,201.332275 275.250580,192.197693 278.003693,183.166336 
z"/>
<path fill="#FDC709" opacity="1.000000" stroke="none" 
	d="
M277.634949,183.205963 
	C275.250580,192.197693 272.793488,201.332275 269.686859,210.240341 
	C261.524628,233.645264 253.063889,256.945984 244.766876,280.304138 
	C243.717697,283.257812 242.936478,286.306671 242.035172,289.715027 
	C237.757996,294.189789 233.476730,298.260956 228.960419,302.999939 
	C224.150192,304.513947 219.574997,305.360199 214.608185,306.166138 
	C213.168869,306.176727 212.121155,306.227631 211.113831,305.888977 
	C213.241364,299.359253 215.443954,293.255371 217.387375,287.070007 
	C220.014648,278.708191 222.442886,270.283844 224.956512,261.886322 
	C234.397064,252.997589 243.845749,244.117477 253.272720,235.214386 
	C255.797653,232.829773 258.256409,230.375076 260.518066,226.746887 
	C255.631424,227.157028 250.744766,227.567154 245.452820,227.531158 
	C245.708710,225.033890 246.351151,222.976440 247.034271,220.932602 
	C250.351151,211.008667 253.678925,201.088379 257.002869,191.166809 
	C263.757294,188.526398 270.511749,185.885986 277.634949,183.205963 
z"/>
<path fill="#6496FD" opacity="1.000000" stroke="none" 
	d="
M221.436157,126.096954 
	C211.567886,127.383766 202.132492,128.598648 192.346909,129.991211 
	C180.402283,133.566711 168.504395,136.181580 157.279160,140.532074 
	C136.523117,148.576309 118.198067,160.710083 102.723701,176.856369 
	C99.455780,180.266174 96.687851,184.155167 93.370209,187.950439 
	C94.162018,185.765594 94.942108,183.210434 96.434807,181.178864 
	C113.941399,157.352371 137.506760,141.611816 164.691422,131.027679 
	C183.212997,123.816444 202.366806,119.858055 222.407867,118.696342 
	C246.736206,117.286118 270.154724,119.862175 292.604797,129.186829 
	C313.815735,137.996826 331.116211,151.541840 341.257416,172.826355 
	C342.524506,175.485733 343.149933,178.450806 344.016663,181.673767 
	C339.339508,174.918182 335.482208,167.097443 329.943665,160.741745 
	C317.047607,145.942993 300.102600,137.048981 281.372009,132.202774 
	C269.472443,129.123978 257.116394,127.564087 244.868835,126.165794 
	C237.295593,125.301178 229.541794,126.018089 221.436157,126.096954 
z"/>
<path fill="#F9BD12" opacity="1.000000" stroke="none" 
	d="
M198.374435,242.781616 
	C200.255966,235.395844 202.496201,227.954636 204.770691,220.523911 
	C205.449646,218.305786 206.224533,216.117004 206.979645,213.540833 
	C215.713654,209.441971 224.423492,205.717056 233.716522,202.227066 
	C233.178085,206.355270 232.084061,210.256790 230.928619,214.140030 
	C228.973618,220.710510 226.979797,227.269455 225.002289,233.833252 
	C216.250275,236.798889 207.498260,239.764542 198.374435,242.781616 
z"/>
<path fill="#FBC30D" opacity="1.000000" stroke="none" 
	d="
M225.378174,233.779358 
	C226.979797,227.269455 228.973618,220.710510 230.928619,214.140030 
	C232.084061,210.256790 233.178085,206.355270 234.096542,202.206558 
	C241.357269,198.377914 248.821167,194.804688 256.643982,191.199127 
	C253.678925,201.088379 250.351151,211.008667 247.034271,220.932602 
	C246.351151,222.976440 245.708710,225.033890 245.024567,227.459030 
	C238.585754,229.797165 232.169907,231.761322 225.378174,233.779358 
z"/>
<path fill="#A2BAE1" opacity="1.000000" stroke="none" 
	d="
M334.622650,242.036163 
	C334.324493,243.521790 333.939728,245.276596 333.042114,246.710327 
	C323.906769,261.302155 311.297394,272.409729 297.224609,281.989899 
	C292.588409,285.146057 287.771637,288.037048 282.405518,290.958435 
	C280.812195,289.897461 279.850739,288.927307 278.889313,287.957153 
	C287.022552,283.037964 295.461212,278.552948 303.216827,273.097015 
	C314.601593,265.088013 325.090179,255.980042 332.571564,243.940125 
	C332.998413,243.253159 333.715851,242.746765 334.622650,242.036163 
z"/>
<path fill="#92ADDA" opacity="1.000000" stroke="none" 
	d="
M214.999802,306.206421 
	C219.574997,305.360199 224.150192,304.513947 228.945709,303.335205 
	C235.516022,301.678833 241.865982,300.355011 248.631836,299.465515 
	C249.367722,301.570435 249.687714,303.240967 250.007706,304.911499 
	C238.978806,307.375153 227.949905,309.838776 216.420532,311.916321 
	C215.613312,309.755615 215.306549,307.980988 214.999802,306.206421 
z"/>
<path fill="#9AB4DE" opacity="1.000000" stroke="none" 
	d="
M250.385010,304.909546 
	C249.687714,303.240967 249.367722,301.570435 249.027313,299.534302 
	C258.719238,295.447357 268.431580,291.725983 278.516602,287.980896 
	C279.850739,288.927307 280.812195,289.897461 282.074585,291.048218 
	C271.837799,295.788391 261.300049,300.347992 250.385010,304.909546 
z"/>
<path fill="#A2BAE1" opacity="1.000000" stroke="none" 
	d="
M340.031158,232.808792 
	C339.671265,233.574463 339.145325,234.546509 338.412048,235.624756 
	C338.758209,234.825699 339.311646,233.920441 340.031158,232.808792 
z"/>
<path fill="#A2BAE1" opacity="1.000000" stroke="none" 
	d="
M337.725037,236.903259 
	C337.575226,237.865738 337.114441,238.982285 336.277649,240.033661 
	C336.405792,238.998108 336.909912,238.027725 337.725037,236.903259 
z"/>
<path fill="#A2BAE1" opacity="1.000000" stroke="none" 
	d="
M335.637054,240.031647 
	C335.846924,240.592499 335.754242,241.265320 335.279480,241.964691 
	C335.043091,241.375381 335.188812,240.759506 335.637054,240.031647 
z"/>
<path fill="#FAC010" opacity="1.000000" stroke="none" 
	d="
M224.605545,261.938293 
	C222.442886,270.283844 220.014648,278.708191 217.387375,287.070007 
	C215.443954,293.255371 213.241364,299.359253 210.813385,306.179932 
	C198.617218,306.901031 186.761230,307.011444 174.907288,306.901428 
	C173.272278,306.886261 171.647415,305.778503 170.017853,305.176575 
	C188.096756,290.781097 206.175659,276.385681 224.605545,261.938293 
z"/>
<path fill="#7A99CF" opacity="1.000000" stroke="none" 
	d="
M165.036850,311.694641 
	C138.943161,307.371979 115.544083,297.571594 97.359703,277.654449 
	C90.016075,269.611023 84.276810,260.487152 81.947960,249.191360 
	C85.654945,255.019684 89.033798,261.459686 93.070938,267.456543 
	C99.617584,277.181091 109.062523,283.829834 119.077698,289.417511 
	C132.923172,297.142181 147.833191,302.085083 163.821899,304.926605 
	C164.365265,307.675201 164.701065,309.684937 165.036850,311.694641 
z"/>
<path fill="#87A4D4" opacity="1.000000" stroke="none" 
	d="
M165.449905,311.787415 
	C164.701065,309.684937 164.365265,307.675201 164.034363,305.272034 
	C165.750549,304.929718 167.461853,304.980865 169.595520,305.104279 
	C171.647415,305.778503 173.272278,306.886261 174.907288,306.901428 
	C186.761230,307.011444 198.617218,306.901031 210.772995,306.569458 
	C212.121155,306.227631 213.168869,306.176727 214.608185,306.166107 
	C215.306549,307.980988 215.613312,309.755615 215.982178,311.921539 
	C202.743286,312.633698 189.443405,313.063782 176.140533,313.200195 
	C172.719559,313.235260 169.289078,312.345215 165.449905,311.787415 
z"/>
<path fill="#6496FD" opacity="1.000000" stroke="none" 
	d="
M91.348175,190.963257 
	C91.482010,190.061005 91.926476,189.042542 92.730484,188.025909 
	C92.612953,188.967514 92.135880,189.907288 91.348175,190.963257 
z"/>
<path fill="#6496FD" opacity="1.000000" stroke="none" 
	d="
M88.341354,196.960297 
	C88.175301,196.451584 88.307945,195.823944 88.765900,195.098785 
	C88.940826,195.614639 88.790436,196.228012 88.341354,196.960297 
z"/>
<path fill="#6496FD" opacity="1.000000" stroke="none" 
	d="
M89.341309,194.960358 
	C89.174995,194.450943 89.307350,193.822678 89.765579,193.098083 
	C89.940964,193.615005 89.790466,194.228241 89.341309,194.960358 
z"/>
<path fill="#6496FD" opacity="1.000000" stroke="none" 
	d="
M90.342354,192.959625 
	C90.177834,192.456055 90.312065,191.833069 90.767792,191.103912 
	C90.939903,191.611893 90.790504,192.226044 90.342354,192.959625 
z"/>
<path fill="#6496FD" opacity="1.000000" stroke="none" 
	d="
M87.292374,197.998108 
	C87.194046,197.739960 87.357903,197.410019 87.805046,197.048065 
	C87.910408,197.319489 87.732483,197.622879 87.292374,197.998108 
z"/>
</svg>